<svg width="1065" height="223" viewBox="0 0 1065 223" fill="none" xmlns="http://www.w3.org/2000/svg">
<path d="M44.248 213.366C32.946 213.366 24.196 210.723 17.998 205.437C11.8001 200.059 8.70117 192.448 8.70117 182.604C8.70117 175.86 9.43034 168.705 10.8887 161.14L24.834 89.2256H4.59961L9.6582 63.249H31.8066L50.5371 28.5225H74.5996L68.0371 63.249H95.6543L90.8691 89.2256H62.8418L48.623 162.37C47.6204 167.657 47.1191 171.713 47.1191 174.538C47.1191 178.731 48.1673 181.875 50.2637 183.972C52.4512 185.977 55.3678 186.979 59.0137 186.979C62.1126 186.979 67.0345 186.387 73.7793 185.202L69.4043 210.085C62.0215 212.272 53.6361 213.366 44.248 213.366ZM144.129 88.542C150.965 79.0628 158.485 72.0446 166.688 67.4873C174.982 62.93 184.461 60.6514 195.125 60.6514C208.98 60.6514 219.416 63.9782 226.434 70.6318C233.452 77.2855 236.961 86.9014 236.961 99.4795C236.961 101.758 236.642 105.404 236.004 110.417C235.366 115.339 234.728 119.167 234.09 121.901L216.727 211.179H178.582L194.715 129.831C197.085 118.256 198.27 110.736 198.27 107.272C198.27 95.5146 191.343 89.6357 177.489 89.6357C171.382 89.6357 165.457 91.3675 159.715 94.8311C154.064 98.2035 149.233 102.806 145.223 108.64C141.213 114.473 138.524 121.035 137.157 128.327L121.024 211.179H82.4691L121.571 8.28809H159.852L149.051 63.6592C148.231 67.8519 147.365 71.999 146.454 76.1006C145.542 80.2021 144.631 84.3493 143.719 88.542H144.129ZM355.846 94.5576C349.557 93.1904 344.362 92.5068 340.261 92.5068C332.787 92.5068 326.224 94.2842 320.573 97.8389C315.013 101.302 310.319 106.634 306.491 113.835C302.663 120.944 299.655 129.968 297.468 140.905L283.659 211.179H245.241L267.253 97.7021C267.8 95.0589 268.301 92.4157 268.757 89.7725C269.304 87.1292 269.759 84.4404 270.124 81.7061C270.671 78.6982 271.172 75.6449 271.628 72.5459C272.175 69.4469 272.63 66.348 272.995 63.249H309.636L306.628 86.7646L305.534 93.4639H306.081C312.735 81.2503 319.297 72.7282 325.768 67.8975C332.24 62.9756 339.668 60.5146 348.054 60.5146C352.155 60.5146 356.849 61.1527 362.136 62.4287L355.846 94.5576ZM503.169 117.8C503.169 127.188 502.258 136.12 500.435 144.597C498.612 152.982 495.832 160.821 492.095 168.112C484.621 182.787 474.048 194.089 460.376 202.019C446.795 209.948 431.437 213.913 414.302 213.913C394.432 213.913 378.709 208.581 367.134 197.917C355.558 187.162 349.771 172.487 349.771 153.894C349.771 135.573 353.417 119.349 360.708 105.222C368 91.0941 378.299 80.1566 391.607 72.4092C405.005 64.5706 420.272 60.6514 437.407 60.6514C458.827 60.6514 475.142 65.6644 486.353 75.6904C497.564 85.6253 503.169 99.6618 503.169 117.8ZM462.974 120.671C462.974 98.1579 453.495 86.9014 434.536 86.9014C424.237 86.9014 415.988 89.6357 409.79 95.1045C405.689 98.7503 402.134 103.763 399.126 110.144C396.209 116.433 393.976 123.314 392.427 130.788C390.877 138.171 390.103 145.326 390.103 152.253C390.103 164.102 392.473 172.989 397.212 178.913C401.952 184.746 409.061 187.663 418.54 187.663C423.644 187.663 428.202 187.025 432.212 185.749C436.314 184.382 439.868 182.422 442.876 179.87C448.801 174.766 453.449 166.973 456.821 156.491C460.285 146.009 462.336 134.069 462.974 120.671ZM665.941 117.8C665.941 127.188 665.03 136.12 663.207 144.597C661.384 152.982 658.604 160.821 654.867 168.112C647.393 182.787 636.82 194.089 623.148 202.019C609.567 209.948 594.209 213.913 577.074 213.913C557.204 213.913 541.481 208.581 529.906 197.917C518.33 187.162 512.543 172.487 512.543 153.894C512.543 135.573 516.188 119.349 523.48 105.222C530.772 91.0941 541.071 80.1566 554.379 72.4092C567.777 64.5706 583.044 60.6514 600.179 60.6514C621.599 60.6514 637.914 65.6644 649.125 75.6904C660.336 85.6253 665.941 99.6618 665.941 117.8ZM625.746 120.671C625.746 98.1579 616.267 86.9014 597.308 86.9014C587.009 86.9014 578.76 89.6357 572.562 95.1045C568.461 98.7503 564.906 103.763 561.898 110.144C558.981 116.433 556.748 123.314 555.199 130.788C553.649 138.171 552.875 145.326 552.875 152.253C552.875 164.102 555.244 172.989 559.984 178.913C564.724 184.746 571.833 187.663 581.312 187.663C586.416 187.663 590.974 187.025 594.984 185.749C599.086 184.382 602.64 182.422 605.648 179.87C611.573 174.766 616.221 166.973 619.593 156.491C623.057 146.009 625.108 134.069 625.746 120.671ZM758.713 211.179L775.529 124.362C777.079 115.795 777.854 109.597 777.854 105.769C777.854 100.209 776.395 96.0615 773.479 93.3271C770.653 90.5928 766.369 89.2256 760.627 89.2256C752.606 89.2256 745.451 92.6891 739.162 99.6162C732.964 106.452 728.635 116.114 726.174 128.601L710.041 211.179H671.486L694.182 94.8311C696.005 86.1722 697.782 75.6449 699.514 63.249H736.701C736.701 63.887 736.473 65.8011 736.018 68.9912C735.562 72.0902 735.015 75.5081 734.377 79.2451C733.83 82.891 733.329 85.9899 732.873 88.542H733.283C740.301 77.9691 747.183 70.6774 753.928 66.667C760.764 62.6566 768.83 60.6514 778.127 60.6514C801.187 60.6514 814.038 71.2243 816.682 92.3701C823.973 80.9769 831.356 72.8649 838.83 68.0342C846.395 63.1123 855.145 60.6514 865.08 60.6514C877.658 60.6514 887.274 63.9782 893.928 70.6318C900.673 77.2855 904.045 86.9014 904.045 99.4795C904.045 105.222 903.088 112.696 901.174 121.901L883.674 211.179H845.529L862.209 125.456C863.85 117.253 864.67 110.69 864.67 105.769C864.579 100.209 863.075 96.0615 860.158 93.3271C857.333 90.5928 853.094 89.2256 847.443 89.2256C839.149 89.2256 831.949 92.7347 825.842 99.7529C819.735 106.771 815.497 116.25 813.127 128.19L796.857 211.179H758.713ZM956.348 146.101C955.71 149.291 955.391 153.347 955.391 158.269C955.391 167.93 957.487 175.358 961.68 180.554C965.964 185.658 972.253 188.21 980.547 188.21C987.292 188.21 993.08 186.296 997.911 182.468C1002.74 178.64 1006.66 172.852 1009.67 165.104L1043.16 175.222C1036.33 189.714 1027.85 199.785 1017.73 205.437C1007.62 211.088 994.356 213.913 977.95 213.913C958.536 213.913 943.36 208.672 932.422 198.19C921.485 187.618 916.016 172.897 916.016 154.03C916.016 135.163 919.297 118.62 925.86 104.401C932.422 90.2738 941.719 79.4274 953.75 71.8623C965.873 64.2972 979.864 60.5146 995.723 60.5146C1014.77 60.5146 1029.45 65.4365 1039.75 75.2803C1050.14 85.0329 1055.33 98.8415 1055.33 116.706C1055.33 125.729 1054.24 135.528 1052.05 146.101H956.348ZM960.86 120.534H1019.79L1020.2 112.878C1020.2 103.125 1017.92 96.016 1013.36 91.5498C1008.89 87.0837 1003.01 84.8506 995.723 84.8506C986.973 84.8506 979.59 87.904 973.575 94.0107C967.65 100.026 963.412 108.868 960.86 120.534Z" fill="#FF5050"/>
<path d="M773.498 50.9443C776.487 49.8716 779.663 49.8536 782.686 51.1318C785.554 52.3522 787.836 54.546 789.623 56.9912C790.665 58.4181 791.475 59.0759 791.967 59.335C792.356 59.5384 792.639 59.5398 792.998 59.4756C795.652 59.0009 798.568 59.1716 801.248 60.6475C803.927 62.127 805.617 64.5293 806.639 67.0225C807.883 70.0589 809.095 72.5517 810.201 74.5225C811.36 76.5863 812.675 78.7341 814.186 80.9443L814.279 81.0381C814.442 80.8309 814.689 80.6326 814.889 80.335C817.462 76.4934 821.103 73.768 825.482 72.085C827.068 71.4726 828.158 70.4 828.904 68.335C829.9 65.5772 831.658 62.9846 834.482 61.3506C837.279 59.7332 840.377 59.5213 843.248 59.9443C844.994 60.2015 846.089 59.7604 847.279 58.2568C850.603 54.0633 854.985 51.3053 860.311 50.8037C864.565 50.4047 868.761 50.9077 872.826 52.2568C876.687 53.5396 880.263 55.3586 883.514 57.7412C884.888 58.749 886.933 59.456 890.123 59.2881C893.231 59.1286 897.148 59.8472 899.686 63.3193C901.984 66.4669 901.928 70.3028 901.42 73.2568C900.622 77.898 900.576 80.8744 900.857 82.5381C901.196 84.5301 901.867 86.5915 902.967 88.7256C904.472 91.6396 905.834 94.782 906.998 98.1006C908.43 102.186 908.735 106.405 907.842 110.616C907.215 113.574 906.699 116.558 906.295 119.569C905.842 122.942 905.196 126.286 904.373 129.601C903.62 132.63 902.898 135.689 902.264 138.741C901.427 142.768 899.728 146.567 897.248 150.038C895.545 152.424 894.305 154.801 893.545 157.21C893.448 157.516 893.173 158.91 895.701 162.085C897.656 164.539 899.26 167.538 899.404 170.944C899.558 174.608 897.981 177.686 895.607 179.991C894.872 180.704 894.708 181.176 894.67 181.351C894.635 181.525 894.605 181.953 894.951 182.804C896.845 187.441 897.246 192.279 895.607 196.96C894.455 200.25 893.072 203.479 891.482 206.663C890.459 208.713 888.894 210.965 886.373 212.288C883.575 213.747 880.617 213.573 878.123 212.569C876.764 212.021 874.881 211.706 872.357 211.866C871.258 211.94 869.401 212.627 866.779 215.429C863.006 219.461 858.424 222.406 853.092 222.694C850.594 222.825 846.269 222.246 844.279 217.96C842.752 214.655 843.766 211.131 844.561 209.007C845.722 205.904 845.933 203.371 845.545 201.272C844.964 198.154 844.148 194.959 843.107 191.71C841.575 186.927 841.708 182.068 843.904 177.554C845.588 174.093 847.79 170.803 850.42 167.663C850.569 167.484 850.636 167.377 850.654 167.335V167.288C850.647 167.156 850.525 166.461 849.576 165.132C847.741 162.561 846.363 159.297 846.811 155.663C847.274 151.931 849.527 149.182 852.107 147.272C853.114 146.526 853.054 146.196 852.998 146.429C852.972 146.308 852.854 146.056 852.623 145.632C850.136 141.08 849.006 136.142 850.186 131.194C850.789 128.66 851.001 126.06 850.842 123.413C850.438 116.493 855.686 111.873 861.061 108.976C862.976 107.942 863.544 107.149 863.686 106.913V106.866C862.418 103.245 861.067 99.3276 859.607 95.1475C858.811 92.8658 857.57 91.843 855.482 91.3975C851.566 90.5616 847.851 90.0575 844.326 89.8975C843.963 89.881 843.754 89.9186 843.67 89.9443C843.597 89.9668 843.52 90.0153 843.436 90.085C843.234 90.2556 842.695 90.8398 842.17 92.4287C840.209 98.3952 836.271 103.236 829.748 104.382C827.009 104.863 824.571 105.933 822.389 107.569C820.315 109.13 818.945 110.954 818.123 113.101C817.485 114.77 817.389 116.772 818.404 119.429C820.397 124.643 820.336 130.051 817.232 134.851C816.442 136.074 816.213 137.354 816.857 139.257C818.475 144.05 818.366 148.95 816.154 153.507C814.436 157.041 812.131 160.362 809.311 163.491C808.767 164.094 808.679 164.481 808.654 164.663C808.629 164.873 808.635 165.426 809.123 166.444C811.271 170.93 812.174 175.656 811.186 180.366C810.147 185.3 807.014 189.326 802.889 192.507C800.396 194.435 799.765 195.981 799.654 197.054C799.412 199.43 799.712 201.266 800.311 202.726C801.315 205.168 801.678 208.357 799.889 211.351C798.292 214.022 795.647 215.39 793.467 216.132C788.942 217.67 784.303 217.577 779.826 215.897C777.017 214.841 774.219 214.123 771.482 213.741C770.647 213.627 769.365 213.763 767.357 215.757C765.938 217.168 764.156 218.808 762.342 219.647C761.687 219.949 758.816 221.197 755.873 219.413C752.81 217.554 752.732 214.29 752.732 213.507C752.738 210.485 754.004 207.16 755.498 204.085C756.22 202.595 756.384 200.946 755.732 198.788C754.24 193.847 754.705 188.912 757.326 184.444C759.199 181.258 761.37 178.145 763.795 175.116C765.579 172.889 766.641 170.667 767.17 168.507C767.886 165.582 768.469 162.626 768.904 159.647C769.062 158.553 768.81 156.617 766.654 153.554C764.873 151.024 763.496 147.949 763.701 144.507C763.92 140.91 765.796 138.034 768.201 135.929C769.102 135.139 769.345 134.576 769.42 134.335C769.48 134.14 769.557 133.781 769.326 133.069C767.638 127.864 768.323 122.708 771.482 118.21C772.291 117.061 772.452 116.106 771.811 114.601C769.941 110.21 769.397 105.635 770.451 101.054C770.713 99.9066 770.515 99.412 769.748 98.71C767.571 96.7195 764.996 94.7124 762.061 92.6631C760.272 91.4177 758.561 91.0394 756.529 91.4443C753.604 92.032 750.974 93.146 748.607 94.7256C745.757 96.6283 743.06 98.6643 740.498 100.819C738.339 102.636 736.626 104.731 735.342 107.147C734.539 108.658 734.239 110.525 735.014 113.194C736.594 118.641 735.992 124.099 732.342 128.616C730.697 130.652 729.738 132.676 729.342 134.757C728.591 138.698 727.062 142.421 724.842 145.913C724.281 146.795 724.018 147.835 724.982 149.897C726.835 153.864 728.162 157.823 728.92 161.757C729.553 165.043 728.879 168.247 726.998 170.991C725.247 173.545 722.654 175.418 719.873 176.851C718.458 177.578 717.871 178.157 717.67 178.397C719.137 182.724 719.597 187.117 718.748 191.429C718.163 194.405 717.688 197.404 717.342 200.429C716.92 204.108 716.011 207.959 714.67 211.96C713.853 214.395 712.069 217.902 708.107 219.085C704.215 220.242 700.782 218.399 698.732 216.882C696.051 214.897 693.589 213.716 691.326 213.179C691.223 213.154 691.069 213.143 690.623 213.366C690.044 213.657 689.084 214.365 687.811 215.944C686.917 217.053 685.982 218.065 685.092 218.897C684.323 219.615 683.067 220.678 681.436 221.241C680.535 221.551 679.187 221.817 677.639 221.476C675.975 221.108 674.669 220.157 673.795 219.038C672.356 217.189 672.192 215.057 672.154 214.116C672.087 212.4 671.502 209.997 669.951 206.851C667.688 202.254 666.847 197.366 668.264 192.507C669.268 189.066 670.603 185.708 672.248 182.429C673.572 179.79 674.582 177.076 675.342 174.366C675.868 172.478 675.877 170.359 675.154 167.851C674.317 164.945 674.4 161.89 675.623 158.991C676.804 156.203 678.845 154.001 681.201 152.288C681.256 152.248 681.297 152.183 681.342 152.147C681.212 151.922 681.025 151.624 680.732 151.257C678.836 148.873 677.312 146.167 676.748 143.194C676.151 140.05 676.708 136.935 678.389 134.194C679.211 132.85 679.44 131.479 678.857 129.554C677.145 123.937 678.553 118.611 682.514 114.366C684.38 112.367 685.163 110.502 685.373 108.788C685.962 104.007 688.333 99.874 691.842 96.4131C691.99 96.2673 692.031 96.1034 692.076 96.0381C692.008 95.7988 691.832 95.2694 691.232 94.4443C687.699 89.5743 686.004 83.5201 689.451 77.7568C690.174 76.543 690.386 75.3238 689.686 73.4912C689.22 72.2776 688.788 70.7599 688.795 69.1318C688.806 67.3801 689.327 65.225 691.045 63.5068C692.664 61.8884 694.641 61.3319 696.107 61.1631C697.576 60.9959 699.06 61.1572 700.373 61.3975C701.539 61.6115 703.113 61.454 705.389 58.5381C707.388 55.9818 710.258 53.3981 714.154 52.9131C718.334 52.4007 721.73 54.4985 724.045 56.8975C725.152 58.0433 725.796 58.2742 725.92 58.3037H725.967C726.004 58.2966 726.147 58.2514 726.389 58.1162C727.363 57.5728 728.507 57.0438 729.67 56.71C730.572 56.4523 732.937 55.8889 735.342 57.1787C738.389 58.8208 738.917 61.8371 738.904 63.3662C738.89 64.8415 738.462 66.2109 738.107 67.1631C737.894 67.7356 737.816 68.3495 737.732 68.9912C739.527 67.4969 741.264 65.9124 742.842 64.1162C746.059 60.4505 750.204 58.1876 755.029 57.4131C758.031 56.9317 760.825 56.1164 763.42 54.9756C766.637 53.561 770.009 52.2025 773.498 50.9443ZM1000.14 52.3975C1003.11 51.0172 1006.52 50.6838 1009.84 52.1162C1012.91 53.4437 1015.1 55.9536 1016.69 58.585C1016.9 58.9354 1017.08 59.1519 1017.2 59.2881C1017.45 59.2165 1017.93 59.0496 1018.65 58.585C1021.27 56.9096 1025.02 55.2597 1029.01 56.4287C1033.35 57.701 1035.35 61.4555 1036.23 64.4912C1037.12 67.5499 1038.22 67.955 1038.95 68.1006C1041.83 68.6689 1044.63 70.0586 1046.59 72.6943C1048.5 75.2674 1049.08 78.3275 1049.03 81.1787C1048.98 83.7486 1049.75 84.8315 1050.58 85.4912C1054.01 88.2568 1056.48 91.7811 1057.84 95.9443C1058.66 98.4501 1059.89 101.053 1061.54 103.772C1064.13 108.02 1065.1 112.73 1064.17 117.601C1063.64 120.347 1063.48 123.08 1063.75 125.804C1064.17 130.213 1063.41 134.482 1061.5 138.507C1059.91 141.854 1058.08 145.054 1056.01 148.069C1053.39 151.9 1049.78 154.605 1045.37 156.085C1039 158.218 1033.42 155.177 1029.39 150.741C1028.27 149.518 1027.58 149.212 1027.37 149.147H1027.23C1027.19 149.162 1027.11 149.186 1027 149.241C1021.88 151.867 1016.48 151.592 1011.58 148.679C1009.02 147.159 1006.64 146.405 1004.45 146.194C1001.91 145.952 999.344 146.121 996.764 146.71C994.375 147.258 991.814 148.315 989.123 150.085C985.21 152.658 981.014 154.265 976.561 154.491C972.215 154.709 967.965 153.727 963.951 151.726C963.582 151.542 963.309 151.413 963.107 151.351C962.672 151.805 962.252 152.272 961.795 152.663C961.441 152.966 960.814 153.297 960.107 153.694C959.879 154.787 959.969 155.885 960.764 157.257C963.137 161.358 964.217 165.817 963.764 170.476C963.505 173.139 963.656 176.217 964.279 179.757C964.675 182 965.731 183.606 967.795 184.866C970.572 186.559 973.368 187.486 976.186 187.726C977.369 187.822 978.694 187.517 980.404 185.054C982.153 182.534 984.36 180.384 987.107 179.007C989.899 177.61 992.918 177.168 995.967 177.554H996.482C997.55 172.616 1000.06 168.456 1004.03 165.366C1007.21 162.891 1010.56 161 1014.01 160.163C1018.74 159.025 1023.1 160.777 1026.62 163.444C1028.67 164.994 1030.79 165.937 1033 166.397C1034.7 166.752 1036.3 167.19 1037.64 167.71C1038.31 167.971 1039.11 168.311 1039.84 168.788C1040.18 169.01 1040.61 169.341 1041.06 169.772L1042.33 171.413L1043.12 173.569C1043.25 174.236 1043.28 174.834 1043.26 175.304C1043.23 176.275 1043.05 177.173 1042.84 177.882C1042.43 179.296 1041.7 180.803 1040.92 182.288C1039.43 185.115 1037.83 187.9 1036.14 190.585C1034.15 193.733 1031.68 196.463 1028.73 198.694C1026.38 200.476 1024.06 202.213 1021.79 203.944C1020.39 205.022 1018.77 206.92 1017.11 209.944C1015.75 212.403 1013.85 214.638 1011.2 216.038C1008.48 217.475 1005.52 217.724 1002.67 217.21C999.732 216.68 997.086 216.627 994.701 216.976C990.581 217.577 986.479 217.143 982.467 215.757C981.435 215.4 980.236 215.395 978.295 216.741C974.525 219.362 970.475 221.214 966.201 222.226C962.897 223.005 959.514 222.462 956.639 220.397C954.017 218.511 952.263 215.695 951.061 212.804C950.296 210.973 949.639 210.249 949.373 210.038C949.28 209.966 949.269 209.975 949.326 209.991C949.38 210.006 949.363 209.976 949.232 209.991C944.488 210.585 939.935 209.678 936.014 206.944C933.276 205.036 930.623 202.972 928.092 200.757C926.046 198.968 923.593 197.188 920.686 195.46C918.173 193.967 916.054 191.819 914.92 188.897C913.807 186.023 913.877 183.018 914.545 180.226C915.406 176.628 915.816 173.55 915.857 170.991C915.851 170.844 915.673 169.503 912.201 167.194C909.565 165.439 906.32 162.372 906.389 157.726C906.458 153.281 909.563 150.183 912.107 148.304C912.914 147.708 913.446 147.211 913.748 146.851C913.809 146.778 913.802 146.672 913.842 146.616C910.975 142.279 909.673 137.372 910.889 132.272C911.764 128.603 913.094 125.074 914.92 121.726C916.404 119.003 917.731 116.298 918.857 113.616C919.655 111.711 920.057 109.441 919.889 106.679C919.7 103.644 920.426 100.556 922.514 98.0068C924.506 95.575 927.28 94.1731 930.061 93.3662C930.287 93.3 930.421 93.1819 930.529 93.1318C930.543 92.8719 930.576 92.3865 930.389 91.585C929.694 88.6231 929.467 85.4376 930.436 82.4443C931.486 79.217 933.725 76.7912 936.67 75.3662C938.508 74.4784 939.975 73.0986 941.029 70.8662C942.242 68.2964 944.026 66.0283 946.561 64.4912C949.087 62.9621 951.934 62.3741 954.764 62.4287C957.872 62.4881 960.273 61.9824 962.123 61.0693C966.745 58.791 971.687 58.8996 976.467 60.6943C976.789 60.8153 976.986 60.8344 977.029 60.835L977.123 60.7881C977.276 60.7186 977.856 60.3857 978.717 59.1475C980.415 56.7043 982.606 54.5083 985.42 53.2412C988.395 51.9044 991.535 51.8508 994.514 52.8662C996.237 53.4547 998.004 53.3907 1000.14 52.3975ZM154.467 0.178711C155.453 0.390002 156.327 0.780669 157.092 1.25684L159.061 2.94434L162.107 7.30371C163.048 8.94821 163.894 10.762 164.686 12.6943C166.583 17.3296 167.023 22.168 165.389 26.8506C164.24 30.141 162.851 33.3687 161.264 36.5537C159.553 39.9867 157.369 43.2703 154.748 46.3975C153.03 48.4482 152.228 50.4126 151.982 52.3037C151.84 53.3992 152.129 55.366 154.373 58.4912C155.932 60.658 157.174 62.9862 157.982 65.3818C158.155 65.3232 158.322 65.2482 158.498 65.1943C162.451 63.9857 166.515 63.4644 170.639 63.6943C173.606 63.8591 176.142 63.7063 178.279 63.2256C181.165 62.5768 184.087 61.9864 187.045 61.4912C188.124 61.3091 190.089 60.4379 192.904 57.6006C195.031 55.4574 197.91 53.4587 201.529 53.2881C205.36 53.108 208.403 55.0191 210.529 57.3193C212.133 59.0497 213.399 59.3342 214.748 59.1475C217.438 58.7751 220.284 59.0355 222.904 60.3662C225.534 61.7069 227.385 63.8794 228.623 66.3193C229.588 68.2134 231.063 69.6493 233.217 70.7256C235.623 71.9295 237.778 73.6654 239.264 76.0693C240.762 78.4956 241.313 81.2252 241.232 83.9443C241.141 87.0186 241.379 89.8738 241.889 92.5225C242.792 97.2184 241.833 101.751 239.404 105.882C238.012 108.248 237.257 110.511 237.014 112.679C236.662 115.811 236.298 118.971 235.889 122.147C235.434 125.672 234.63 129.141 233.498 132.554C232.594 135.276 231.927 138.084 231.529 140.897C231.297 142.576 231.595 144.724 232.982 147.507C234.23 150.001 234.979 152.76 234.857 155.616C234.731 158.518 233.713 161.156 232.045 163.444C230.441 165.647 229.507 167.833 229.092 170.007C228.344 173.95 226.81 177.715 224.592 181.21C224.042 182.085 223.784 183.113 224.732 185.147C226.592 189.117 227.955 193.116 228.717 197.054C229.144 199.275 229.268 202.14 227.967 204.788C226.452 207.855 223.664 209.332 220.936 209.757C219.397 209.998 217.241 210.765 214.42 212.382C210.457 214.651 206.25 215.948 201.857 215.944C198.819 215.94 195.757 216.032 192.717 216.272C189.108 216.557 184.998 216.506 180.436 216.132C179.097 216.022 177.624 215.791 176.264 215.288C175.017 214.826 172.82 213.739 171.67 211.257C170.411 208.532 171.227 205.997 171.998 204.554C172.747 203.152 173.814 201.995 174.764 201.132C177.233 198.887 178.859 196.685 179.826 194.569C179.87 194.474 179.948 194.319 179.826 193.866C179.654 193.241 179.113 192.142 177.811 190.585C175.682 188.039 173.643 184.268 174.764 179.944C175.848 175.791 179.328 173.377 182.311 171.976C183.167 171.571 183.712 171.21 184.045 170.944C181.881 166.411 181.049 161.605 182.451 156.835C183.465 153.398 184.828 150.03 186.482 146.757C187.813 144.126 188.855 141.444 189.623 138.741C190.16 136.849 190.197 134.694 189.482 132.179C188.66 129.275 188.711 126.249 189.904 123.366C191.033 120.643 192.983 118.452 195.248 116.71C195.141 116.582 195.021 116.396 194.873 116.241C191.333 112.539 188.713 108.003 188.92 102.882C185.019 102.084 181.609 100.124 178.748 97.21C177.574 96.0133 176.664 95.8172 175.607 95.9912C171.663 96.6381 167.437 96.47 162.998 95.6631C162.935 95.887 162.821 96.1766 162.764 96.5537C161.892 102.255 159.363 107.549 153.904 110.147C153.319 110.425 153.122 110.703 153.061 110.804C152.978 110.948 152.789 111.357 152.779 112.21C152.737 115.356 151.679 118.262 149.592 120.647C147.84 122.649 145.521 123.969 143.076 125.007C145.067 127.507 146.804 130.731 146.498 134.476C146.157 138.631 143.511 141.501 140.686 143.335C139.344 144.205 139.004 144.813 138.951 144.929V144.976C138.95 144.996 138.95 145.155 139.045 145.444C139.949 148.204 140.103 151.134 139.186 154.022C138.278 156.862 136.478 159.196 134.311 161.054C132.553 162.557 132.576 163.459 132.764 164.288C133.684 168.358 133.878 172.413 133.279 176.382C132.932 178.694 133.028 181.194 133.701 183.929C134.825 188.49 134.591 193.04 132.811 197.335C131.854 199.647 131.35 202.027 131.311 204.507C131.267 207.347 130.4 210.188 128.311 212.476C126.306 214.668 123.658 215.84 121.045 216.46C117.261 217.357 113.731 218.148 110.451 218.804C107.512 219.391 104.555 220.156 101.592 221.147C95.2286 223.278 89.6842 220.278 85.6543 215.851C82.4944 212.373 80.5072 210.198 79.8418 209.429C79.1394 208.616 78.7214 207.732 78.4824 206.897C77.8357 208.65 77.0439 210.388 75.8105 211.96C72.8699 215.704 69.2443 218.544 64.9355 220.163C60.6757 221.764 56.222 222.043 51.7637 221.054C48.4261 220.313 46.2211 219.818 45.0605 219.601C43.2726 219.266 40.69 218.478 37.6543 217.397C35.7603 216.724 33.5836 216.531 30.998 217.069C28.3945 217.609 25.6978 217.592 23.0762 216.694C20.428 215.784 18.2432 214.107 16.5605 212.007C13.7468 208.488 12.0313 204.477 11.5918 200.054C11.2949 197.041 10.8618 194.417 10.373 192.226C9.75507 189.45 9.34426 186.524 9.10742 183.46C9.03475 182.516 8.35025 180.578 5.68555 177.554C3.65958 175.254 1.96452 172.243 1.93555 168.694C1.90996 164.978 3.73861 161.986 6.06055 159.835C6.93915 159.018 7.23411 158.451 7.32617 158.147C7.40241 157.891 7.46886 157.472 7.23242 156.741C5.53303 151.496 6.24218 146.3 9.5293 141.835C10.4319 140.61 10.6551 139.469 10.0918 137.757C8.45268 132.754 8.88092 127.709 11.6387 123.179C12.9764 120.979 13.7017 118.773 13.9355 116.522C14.3913 112.124 16.1262 108.094 18.8574 104.476C20.4858 102.319 21.3682 100.197 21.7168 98.1006C21.8322 97.4051 21.7698 96.1715 19.7012 94.0693C17.4043 91.7356 15.4944 90.8898 13.9824 90.6943C13.3235 90.6094 12.817 90.5353 12.4355 90.5068C12.318 90.5618 12.2332 90.6918 12.1074 90.7412C9.81098 91.6324 7.85147 90.867 7.13867 90.5068C6.36876 90.115 5.85964 89.6405 5.63867 89.4287C4.87269 88.6937 4.31962 87.7586 4.13867 87.46C3.55132 86.488 2.78527 85.0345 1.88867 83.2412C0.641959 80.7469 -0.108749 77.9879 0.0136719 75.1318C0.142383 72.233 1.15861 69.5897 2.82617 67.3037C5.09962 64.1893 8.0165 61.1153 11.7793 59.9912C15.5646 58.8613 19.6659 59.8187 23.2168 61.21C23.306 61.2449 23.3901 61.2386 23.4512 61.2568C23.5687 61.1432 23.7862 60.9838 24.0137 60.6475C25.6324 58.2539 26.5135 55.898 26.7793 53.5225C27.1515 50.1959 28.7607 47.334 31.373 45.2725C33.8046 43.3601 36.8257 42.3429 39.9043 41.8037C41.5077 41.5232 42.1871 41.0777 42.4355 40.9131C42.334 36.4994 43.2221 32.0434 46.1855 28.6318C49.1117 25.2633 53.1787 23.7654 57.4355 23.4287C59.7507 23.2438 62.1762 22.5411 64.748 21.2256C65.8429 20.6649 67.2246 20.1185 68.7324 19.9131C70.2985 19.7014 72.5802 19.7966 74.5918 21.3662C76.5421 22.8906 77.2202 24.9839 77.4512 26.4287C77.6816 27.8758 77.546 29.3212 77.3574 30.5537C76.7224 34.7032 75.6599 38.5802 74.0762 42.1318C74.0333 42.2279 73.9368 42.3915 74.0762 42.8818C74.2536 43.5031 74.786 44.5802 76.0918 46.1162C78.3753 48.7964 79.9458 51.9641 80.2637 55.5381C80.2923 55.8633 80.2562 56.2004 80.2637 56.5225C81.3967 56.3978 82.5545 56.3683 83.7324 56.4756C87.0989 56.7834 90.1476 57.2913 92.5449 58.1631C95.4519 59.2227 97.3147 61.5959 97.9355 64.3506C98.4559 66.6688 98.078 69.0387 97.5605 70.96C97.0533 72.8537 97.0453 74.9746 97.7949 77.4756C97.9518 77.9989 98.005 78.5619 98.123 79.1162L98.1699 78.9756C99.5035 75.7196 102.172 73.4922 104.92 71.9443C108.625 69.8586 110.06 68.0155 110.545 66.7881C111.382 64.6633 111.711 62.4379 111.482 60.0381C111.175 56.8244 110.783 53.5848 110.311 50.335C109.71 46.2092 109.92 42.1295 111.014 38.1943C111.803 35.3635 112.395 32.4736 112.795 29.5693C113.259 26.1938 113.906 22.8469 114.717 19.5381C115.485 16.4063 116.168 13.7499 116.732 11.6162L117.482 9.60059C117.841 8.93373 118.327 8.28502 118.936 7.67871C120.217 6.41071 121.799 5.68858 123.342 5.42871C126.087 4.96796 128.714 5.88198 130.607 6.74121C133.277 7.95479 135.878 8.66026 138.389 8.94434C138.707 8.98006 140.128 9.01926 142.748 5.94434C144.505 3.87778 146.712 1.74028 149.311 0.694336C150.728 0.125072 152.527 -0.235048 154.467 0.178711ZM356.779 51.1318C359.83 51.191 361.985 53.0406 363.061 55.0225C363.94 56.6501 364.156 58.4261 364.232 59.71C364.431 63.1026 365.044 66.3073 366.014 69.2725C366.914 72.0331 367.076 74.9628 366.154 77.8506C365.244 80.6896 363.449 83.026 361.279 84.8818C359.498 86.4028 359.561 87.2825 359.732 88.0225C359.818 88.3929 359.891 88.7376 359.967 89.0537C362.513 87.3122 365.637 87.0159 368.029 87.0381L370.701 86.6162H370.748C371.304 81.3424 373.553 76.6734 378.061 73.6787C381.279 71.542 384.778 69.9283 388.514 68.8506C391.521 67.9829 394.392 67.018 397.139 65.9912C399.087 65.2624 401.049 63.973 402.998 61.96C405.113 59.7711 407.908 58.2432 411.201 58.0693C414.333 57.908 417.219 59.0011 419.686 60.5068C419.881 60.6261 420.045 60.6939 420.154 60.7412C420.35 60.5701 420.701 60.2302 421.139 59.5693C422.822 57.0322 424.957 54.7096 427.748 53.335C430.743 51.8607 433.991 51.7165 437.076 52.7725C438.837 53.3719 440.609 53.3248 442.701 52.3975C445.272 51.2591 448.069 50.7815 450.951 51.2256C453.819 51.668 456.356 52.987 458.498 54.7881C460.812 56.7286 462.95 57.7603 464.92 58.1631C470.015 59.1978 473.865 62.3593 476.451 66.7881C476.62 67.0781 476.768 67.2074 476.826 67.2568C476.876 67.2991 476.925 67.3201 477.014 67.3506C477.218 67.4199 477.915 67.5686 479.451 67.21C482.342 66.5306 485.52 66.3658 488.498 67.4443C491.687 68.6053 493.93 70.9752 495.248 73.8662C496.143 75.824 497.644 77.4477 499.982 78.7412C502.84 80.3255 505.223 82.9023 505.936 86.5693C506.585 89.9384 505.619 93.1996 504.248 95.9443C504.022 96.396 503.868 96.7011 503.826 96.8818C503.953 97.0289 504.351 97.4256 505.326 97.9131C508.133 99.3196 511.424 101.679 512.498 105.647C513.65 109.931 511.606 113.559 509.498 115.96C509.02 116.504 508.653 117.014 508.326 117.413C508.426 118.022 508.47 118.555 508.467 118.96C508.464 119.24 508.35 119.518 508.326 119.804C509.466 117.076 511.466 114.959 513.764 113.335C516.673 111.277 518.809 109.256 520.326 107.335C520.328 107.332 521.221 106.319 519.717 102.226C518.633 99.283 517.767 94.8376 520.607 91.1162C523.325 87.5634 527.696 87.0063 530.826 87.0381C532.447 87.0542 533.206 86.7358 533.498 86.6162L534.248 82.7725C535.326 79.1 537.438 75.9248 540.811 73.6787C544.026 71.5437 547.531 69.9283 551.264 68.8506C554.28 67.9805 557.181 67.0214 559.936 65.9912C561.886 65.2604 563.845 63.9775 565.795 61.96C567.909 59.7726 570.661 58.2449 573.951 58.0693C577.092 57.9035 580.01 58.9961 582.482 60.5068C582.652 60.61 582.801 60.6474 582.904 60.6943C583.101 60.5203 583.46 60.2155 583.889 59.5693C585.569 57.035 587.713 54.7118 590.498 53.335C593.491 51.8616 596.742 51.7188 599.826 52.7725C601.589 53.3756 603.359 53.3226 605.451 52.3975C608.019 51.2592 610.823 50.7863 613.701 51.2256C616.57 51.6677 619.106 52.9866 621.248 54.7881C623.572 56.7402 625.739 57.7615 627.717 58.1631C632.811 59.2008 636.664 62.3565 639.248 66.7881C639.406 67.0588 639.513 67.2006 639.576 67.2568C639.622 67.2959 639.687 67.3222 639.764 67.3506C639.968 67.4202 640.7 67.5736 642.248 67.21C645.143 66.5305 648.314 66.3592 651.295 67.4443C654.482 68.6057 656.727 70.9763 658.045 73.8662C658.94 75.8185 660.401 77.4502 662.732 78.7412C665.595 80.3249 667.972 82.8972 668.686 86.5693C669.338 89.9432 668.372 93.1967 666.998 95.9443C666.755 96.43 666.659 96.7552 666.623 96.9287C666.779 97.0956 667.177 97.4637 668.076 97.9131C670.886 99.3186 674.218 101.671 675.295 105.647C676.441 109.921 674.398 113.56 672.295 115.96C671.833 116.486 671.444 116.976 671.123 117.366C671.229 117.992 671.22 118.546 671.217 118.96C671.202 120.688 670.75 122.567 670.232 124.257C669.712 125.955 669.774 127.797 670.654 130.022C672.617 134.972 672.36 140.093 669.67 144.741C667.701 148.141 665.304 151.265 662.498 154.116C660.436 156.211 659.005 158.269 658.092 160.257C656.843 162.975 655.591 165.696 654.342 168.413C653.869 169.445 653.53 171.535 654.389 175.351C655.058 178.314 655.194 181.824 653.451 184.96C651.609 188.268 648.425 189.887 645.342 190.538C643.17 190.998 642.526 191.843 642.154 192.976C641.316 195.518 639.919 197.843 637.842 199.679C635.754 201.523 633.273 202.624 630.623 203.101C628.903 203.41 627.615 204.23 626.545 205.96C623.656 210.617 619.252 213.445 613.701 213.694C610.868 213.818 608.283 214.338 605.967 215.241C601.635 216.928 597.1 217 592.607 215.663C589.919 214.863 587.534 214.641 585.389 214.866C582.253 215.196 579.093 215.45 575.92 215.616C572.246 215.808 568.599 215.442 565.045 214.538C562.217 213.818 559.4 213.217 556.607 212.71C554.836 212.389 552.388 212.474 549.154 213.413C546.45 214.196 543.503 214.412 540.623 213.507C537.675 212.575 535.4 210.656 533.779 208.257C532.045 205.691 530.225 203.608 528.342 201.976C525.082 199.148 522.849 195.565 521.686 191.382C521.382 190.285 520.636 189.115 518.404 188.054C514.148 186.037 510.52 183.224 507.67 179.616C505.565 176.949 504.605 173.652 505.279 170.147C505.898 166.945 507.768 164.194 509.92 161.897C511.262 160.466 511.623 159.582 511.701 159.272V159.226C511.693 159.205 511.653 159.157 511.607 159.085C509.108 155.168 507.833 150.852 508.092 146.288C508.186 144.656 508.279 143.003 508.373 141.366C508.009 142.504 507.555 143.645 506.92 144.741C504.953 148.14 502.552 151.265 499.748 154.116C497.688 156.209 496.255 158.271 495.342 160.257C494.093 162.975 492.841 165.696 491.592 168.413C491.118 169.444 490.778 171.527 491.639 175.351C492.309 178.317 492.402 181.822 490.654 184.96C488.815 188.262 485.669 189.885 482.592 190.538C480.416 190.997 479.777 191.842 479.404 192.976C478.567 195.518 477.167 197.842 475.092 199.679C473.002 201.526 470.479 202.624 467.826 203.101C466.118 203.413 464.861 204.238 463.795 205.96C460.903 210.629 456.469 213.451 450.904 213.694C448.077 213.818 445.529 214.341 443.217 215.241C438.889 216.929 434.346 216.995 429.857 215.663C427.167 214.862 424.739 214.64 422.592 214.866C419.455 215.196 416.296 215.45 413.123 215.616C409.449 215.808 405.802 215.443 402.248 214.538C399.42 213.819 396.603 213.217 393.811 212.71C392.041 212.39 389.631 212.477 386.404 213.413C383.696 214.2 380.758 214.413 377.873 213.507C374.916 212.578 372.653 210.662 371.029 208.257C369.295 205.689 367.475 203.609 365.592 201.976C362.33 199.148 360.1 195.565 358.936 191.382C358.631 190.283 357.851 189.117 355.607 188.054C351.348 186.035 347.724 183.229 344.873 179.616C342.769 176.95 341.81 173.65 342.482 170.147C343.1 166.951 344.976 164.191 347.123 161.897C348.456 160.475 348.823 159.587 348.904 159.272C348.93 159.163 348.94 159.163 348.951 159.226C348.958 159.252 348.938 159.211 348.857 159.085C346.354 155.165 345.082 150.857 345.342 146.288C345.524 143.131 345.676 139.947 345.857 136.772C346.001 134.266 345.758 131.478 345.014 128.429C344.332 125.627 344.382 122.701 345.529 119.897C346.663 117.135 348.649 114.974 350.967 113.335C353.883 111.274 356.057 109.259 357.576 107.335C357.654 107.23 358.352 106.119 356.92 102.226C356.71 101.657 356.525 101.015 356.357 100.351L356.217 100.444C355.765 100.501 355.397 100.501 355.186 100.491C354.763 100.472 354.435 100.378 354.295 100.351C353.535 100.202 352.91 99.9304 352.42 99.6475L351.998 99.4131C351.364 99.1064 350.284 98.6091 348.764 97.9131C347.486 97.3307 346.242 97.2921 344.498 98.1475C340.284 100.214 335.809 101.008 331.232 100.351C328.353 99.9339 325.11 99.7619 321.529 99.8818C318.956 99.9688 316.893 100.764 315.154 102.272C312.784 104.328 310.871 106.642 309.342 109.163C308.713 110.202 308.322 111.84 309.529 114.976C310.652 117.886 311.191 121.129 310.373 124.351C309.526 127.685 307.4 130.201 304.748 131.991C303.836 132.607 303.625 133.054 303.576 133.163C303.568 133.182 303.424 133.426 303.623 134.147C305.071 139.39 304.253 144.521 300.998 148.913C300.1 150.127 299.836 151.24 300.389 152.944C302.023 157.956 301.611 162.994 298.842 167.522C297.499 169.717 296.739 171.931 296.498 174.179C296.031 178.576 294.316 182.614 291.576 186.226C289.942 188.379 289.071 190.505 288.717 192.601C288.198 195.682 287.716 198.777 287.311 201.882C287.089 203.579 286.79 205.242 286.326 206.616C286.101 207.28 285.736 208.274 285.061 209.194C284.416 210.073 282.856 211.734 280.232 211.96C279.419 212.03 277.332 212.126 274.186 212.288C272.488 212.38 270.428 213.101 267.951 215.007C265.746 216.702 263.223 217.954 260.404 218.382C257.527 218.815 254.723 218.319 252.154 217.116C250.439 216.313 248.909 215.511 247.654 214.726C246.546 214.032 245.087 213.003 244.045 211.585C241.98 208.772 242.615 205.658 243.061 204.179C243.58 202.456 244.51 200.702 245.545 199.069C246.099 198.189 246.367 197.137 245.404 195.085C243.548 191.122 242.183 187.157 241.42 183.226C240.791 179.956 241.48 176.774 243.342 174.038C245.091 171.48 247.685 169.568 250.467 168.132C251.901 167.392 252.43 166.773 252.623 166.538C251.169 162.239 250.758 157.888 251.592 153.601C252.175 150.618 252.608 147.584 252.951 144.554C253.212 142.246 253.002 139.736 252.201 136.96C251.413 134.235 251.368 131.361 252.248 128.569C253.116 125.821 254.782 123.52 256.842 121.632C259.292 119.384 260.9 117.183 261.857 115.069C261.901 114.974 261.947 114.81 261.811 114.319C261.636 113.695 261.15 112.589 259.842 111.038C257.698 108.497 255.642 104.776 256.748 100.444C257.811 96.2839 261.22 93.8518 264.201 92.4287C265.023 92.0366 265.551 91.6605 265.889 91.3975C263.677 86.9366 262.791 82.1845 264.014 77.4287C264.902 73.9751 266.077 70.553 267.576 67.21C268.447 65.2706 269.718 63.2255 271.607 61.7256C273.743 60.0382 276.464 59.2564 279.295 59.8506C279.354 59.8535 279.6 59.8732 280.092 59.7568C280.781 59.5936 281.78 59.2567 283.092 58.585C285.783 57.2075 288.779 56.6742 291.857 57.3193C294.823 57.9448 297.364 59.5503 299.498 61.5381C300.269 62.2553 300.858 62.4691 301.326 62.5225C301.866 62.5809 302.849 62.5001 304.373 61.7725C305.632 61.1709 306.887 60.616 308.076 60.2725C308.986 60.0109 311.011 59.4939 313.139 60.1318C314.435 60.5226 315.896 61.3872 316.889 62.9443C317.107 63.288 317.17 63.6823 317.311 64.0225C318.599 62.8617 320.143 62.0435 321.811 61.4912C324.005 60.7658 326.011 59.4015 327.811 57.1787C329.854 54.6522 332.826 52.6424 336.67 52.6787C340.19 52.7152 343.227 54.4677 345.576 56.4287C346.59 57.2712 346.886 57.1141 346.654 57.1318C346.497 57.1471 347.005 57.149 348.201 55.8662C349.232 54.76 350.359 53.7253 351.529 52.9131C352.552 52.204 354.414 51.0908 356.779 51.1318ZM1005.2 63.2725C1000.5 65.4595 995.518 65.8816 990.623 64.21C990.502 64.1701 990.425 64.1669 990.389 64.1631H990.342C990.176 64.2378 989.513 64.6207 988.561 65.9912C986.821 68.493 984.556 70.7463 981.576 71.9443C978.453 73.1982 975.217 73.0135 972.248 71.8975C969.982 71.049 968.537 71.2542 967.42 71.8037C963.524 73.7266 959.162 74.5179 954.529 74.4287C953.495 74.4088 953.007 74.6298 952.795 74.7568C952.599 74.8753 952.241 75.1624 951.857 75.9756C949.716 80.5115 946.399 84.0291 941.92 86.1943H941.873C941.817 86.4174 941.68 87.1866 942.061 88.8193C942.794 91.9463 942.931 95.4934 941.311 98.71C939.607 102.083 936.563 103.976 933.389 104.897C932.414 105.18 931.98 105.442 931.842 105.554C931.834 105.614 931.831 105.748 931.842 105.929C932.11 110.272 931.528 114.42 929.92 118.257C928.627 121.334 927.135 124.431 925.467 127.491C924.145 129.917 923.184 132.431 922.561 135.038C922.285 136.196 922.377 137.751 923.873 140.007C925.809 142.916 926.663 146.47 925.467 150.132C924.414 153.329 922.003 155.755 919.467 157.679C924.024 160.861 927.944 165.257 927.857 171.179C927.799 174.82 927.223 178.785 926.217 182.991C925.966 184.039 926.1 184.474 926.123 184.538C926.132 184.56 926.148 184.602 926.217 184.679C926.293 184.763 926.441 184.945 926.779 185.147C930.22 187.192 933.327 189.405 936.014 191.757C938.208 193.677 940.494 195.452 942.857 197.101C944.051 197.932 945.554 198.358 947.732 198.085C951.047 197.672 954.198 198.581 956.826 200.663C959.274 202.604 960.968 205.321 962.17 208.21C962.762 209.633 963.285 210.254 963.529 210.507C966.166 209.869 968.792 208.71 971.404 206.897C975.89 203.779 981.104 202.582 986.404 204.413C988.719 205.21 990.877 205.421 992.967 205.116C996.795 204.557 1000.77 204.666 1004.83 205.397C1005.15 205.455 1005.34 205.455 1005.44 205.444C1005.51 205.435 1005.55 205.411 1005.58 205.397C1005.62 205.373 1006.05 205.153 1006.61 204.132C1008.78 200.182 1011.39 196.831 1014.53 194.429C1016.81 192.684 1019.14 190.879 1021.51 189.085C1023.28 187.742 1024.79 186.108 1026.01 184.163C1027.31 182.115 1028.46 179.979 1029.62 177.835C1025.92 176.924 1022.47 175.367 1019.36 173.007C1018.42 172.294 1017.74 172.001 1017.34 171.882C1017.02 171.787 1016.88 171.776 1016.83 171.788C1015.62 172.08 1013.81 172.946 1011.39 174.835C1009.76 176.108 1008.7 177.759 1008.2 180.085C1007.58 182.941 1006.13 185.835 1003.28 187.726C1000.49 189.57 997.298 189.82 994.467 189.46C993.584 189.348 992.991 189.498 992.498 189.741C991.95 190.016 991.14 190.612 990.248 191.897C986.688 197.021 981.582 200.224 975.154 199.679C970.352 199.27 965.801 197.715 961.561 195.132C956.611 192.114 953.476 187.572 952.467 181.866C951.689 177.463 951.426 173.259 951.811 169.304C952.001 167.343 951.586 165.377 950.357 163.257C947.735 158.727 947.132 153.727 948.951 148.772C949.495 147.294 950.121 145.67 950.779 144.601C950.936 144.347 951.386 143.689 952.092 143.054C952.349 142.824 953.926 141.552 956.123 141.507C957.746 140.253 959.705 139.475 961.889 139.304C964.593 139.092 967.153 139.9 969.342 140.991C971.72 142.173 973.903 142.594 975.951 142.491C977.889 142.393 980.082 141.731 982.561 140.101C986.255 137.67 990.094 135.907 994.092 134.991C997.904 134.121 1001.77 133.871 1005.62 134.241C1009.83 134.646 1013.88 136.083 1017.72 138.366C1019.21 139.256 1020.23 139.214 1021.51 138.554C1024.36 137.095 1027.55 136.679 1030.75 137.616C1033.76 138.502 1036.26 140.436 1038.29 142.679C1039.49 143.99 1040.33 144.519 1040.78 144.694C1041.1 144.817 1041.27 144.779 1041.53 144.694C1043.51 144.033 1044.99 142.933 1046.12 141.272C1047.83 138.785 1049.34 136.141 1050.67 133.351C1051.67 131.24 1052.05 129.121 1051.84 126.929C1051.47 123.061 1051.62 119.196 1052.36 115.351C1052.69 113.614 1052.43 111.901 1051.28 110.007C1049.21 106.599 1047.59 103.143 1046.45 99.6475C1045.85 97.8004 1044.74 96.1975 1043.03 94.8193C1038.71 91.3375 1036.93 86.3589 1037.03 80.9443C1037.04 80.4048 1037.02 80.0759 1036.98 79.9131C1036.91 79.8885 1036.79 79.8937 1036.65 79.8662C1030.55 78.659 1026.87 74.2342 1025.03 68.71C1022.17 70.5282 1018.66 71.9217 1014.86 71.1943C1010.91 70.4351 1008.2 67.7264 1006.42 64.7725C1005.99 64.0567 1005.6 63.6195 1005.34 63.3662C1005.28 63.3101 1005.24 63.2601 1005.2 63.2256V63.2725ZM151.936 13.7256C148.166 18.1579 143.155 21.5772 137.076 20.8975C133.778 20.5277 130.558 19.6028 127.373 18.3193C127.062 19.5528 126.75 20.924 126.389 22.3975C125.676 25.3038 125.109 28.2448 124.701 31.21C124.228 34.6447 123.523 38.037 122.592 41.3818C121.966 43.6255 121.796 46.028 122.17 48.6006C122.67 52.0378 123.109 55.458 123.436 58.8662C123.841 63.1038 123.25 67.2634 121.701 71.1943C119.798 76.0147 115.734 79.6326 110.826 82.3975C110.114 82.7981 109.655 83.1096 109.42 83.335C109.442 83.3849 109.481 83.4583 109.514 83.5225C112.078 88.541 112.529 94.029 109.561 99.085C107.938 101.843 106.447 104.624 105.154 107.429C103.995 109.944 103.2 112.508 102.764 115.116C102.49 116.758 102.773 118.874 104.123 121.632C105.421 124.282 106.08 127.284 105.529 130.397C104.977 133.519 103.326 136.105 101.17 138.132C100.379 138.875 100.186 139.344 100.139 139.538C100.097 139.71 100.059 140.124 100.373 140.944C102.409 146.275 101.778 151.678 98.2637 156.272C96.6547 158.38 95.8339 160.433 95.5449 162.46C95.2737 164.381 95.5392 166.655 96.6699 169.397C98.3593 173.49 99.3419 177.622 99.4824 181.726C99.6154 185.629 99.1194 189.455 98.0293 193.163C96.836 197.216 94.6664 200.936 91.7012 204.272C91.6435 204.337 91.568 204.398 91.5137 204.46C92.3286 205.361 93.326 206.481 94.5137 207.788C95.6912 209.082 96.5443 209.578 96.998 209.757C97.3111 209.877 97.502 209.883 97.748 209.804C101.178 208.655 104.653 207.729 108.107 207.038C111.225 206.415 114.613 205.658 118.279 204.788C118.832 204.657 119.142 204.502 119.311 204.413V204.319C119.374 200.316 120.213 196.448 121.748 192.741C122.468 191.003 122.64 189.075 122.076 186.788C121.067 182.687 120.817 178.611 121.42 174.601C121.776 172.237 121.667 169.662 121.045 166.913C119.701 160.936 122.045 155.762 126.482 151.96C127.387 151.186 127.669 150.646 127.748 150.413C127.802 150.245 127.88 149.893 127.654 149.194C126.672 146.2 126.654 142.987 128.029 139.96C129.338 137.082 131.646 134.941 134.17 133.304L134.217 133.257C134.07 133.02 133.909 132.686 133.607 132.319C131.652 129.947 129.419 126.309 130.279 122.101C131.205 117.603 134.973 115.36 137.873 114.272C139.542 113.647 140.268 113.042 140.545 112.726C140.722 112.523 140.775 112.368 140.779 112.022C140.813 109.434 141.421 106.845 142.842 104.522C144.286 102.168 146.364 100.45 148.748 99.3193C149.214 99.0978 150.353 98.3351 150.904 94.7256C151.158 93.07 151.633 91.3291 152.451 89.71C152.159 89.9487 151.915 90.2818 151.607 90.5068C149.83 91.8033 147.642 92.9414 145.139 93.2256C142.396 93.5357 139.819 92.7408 137.732 91.0225C136.539 90.0363 135.166 88.3689 134.873 85.96C134.584 83.5788 135.458 81.6482 136.326 80.4287C137.878 78.2493 140.47 76.6563 142.748 75.46C146.369 73.5549 146.843 72.0627 146.92 71.5693C147.08 70.5036 146.838 68.6017 144.623 65.5225C141.404 61.0458 139.394 56.0175 140.076 50.7568C140.656 46.293 142.587 42.2606 145.561 38.71C147.637 36.2327 149.278 33.7198 150.529 31.21C151.9 28.4601 153.066 25.6722 154.045 22.8662C154.538 21.4468 154.621 19.6834 153.623 17.2412L151.936 13.7256ZM58.373 35.3818C56.2679 35.5483 55.5192 36.1382 55.2324 36.46C55.0134 36.7121 54.3615 37.7531 54.4355 40.6787C54.5233 44.0796 53.3296 47.2968 50.6855 49.7256C48.2586 51.9499 45.0896 53.0698 41.9668 53.6162C39.9717 53.9664 39.0795 54.4574 38.7793 54.6943C38.6721 54.779 38.6661 54.8187 38.6855 54.7881C38.7127 54.7395 38.6993 54.7277 38.6855 54.835C38.1842 59.3167 36.5563 63.5463 33.9512 67.3975C32.417 69.66 30.2754 71.7258 27.3887 72.7412C24.428 73.7763 21.4361 73.4419 18.8105 72.4131C17.5156 71.9067 16.5639 71.6642 15.9043 71.5693C15.5077 71.513 15.2821 71.5159 15.2012 71.5225C15.1077 71.5767 14.9208 71.6997 14.6387 71.9443C14.0997 72.4141 13.3488 73.1941 12.4824 74.3818C12.0864 74.9283 11.9834 75.3273 11.9668 75.6475C11.9506 76.0242 12.0655 76.7345 12.623 77.8506C12.7551 78.1148 12.8794 78.3667 12.998 78.6006C13.8153 78.6514 14.6725 78.6775 15.5293 78.7881C20.4171 79.42 24.6749 81.9689 28.2793 85.6318C32.1123 89.5272 34.5085 94.449 33.5762 100.069C32.8758 104.285 31.0822 108.168 28.4199 111.694C26.8627 113.757 26.0975 115.755 25.8887 117.741C25.4608 121.871 24.1064 125.79 21.9043 129.413C21.1186 130.704 20.892 132.061 21.5293 134.007C23.2552 139.254 22.5255 144.483 19.2324 148.96C18.3224 150.195 18.0733 151.334 18.623 153.038C19.513 155.785 19.6627 158.705 18.8105 161.569C17.9719 164.378 16.2952 166.72 14.2168 168.647C14.1764 168.685 14.1093 168.708 14.0762 168.741C14.2 168.945 14.4107 169.22 14.7324 169.585C18.1366 173.448 20.698 177.813 21.0605 182.522C21.2588 185.095 21.6078 187.478 22.0918 189.647C22.7077 192.412 23.1659 195.511 23.498 198.882C23.6929 200.821 24.461 202.662 25.9355 204.507C26.4096 205.099 26.7681 205.282 26.9668 205.351C27.1853 205.424 27.6551 205.537 28.5605 205.351C33.0467 204.417 37.4817 204.604 41.6855 206.101C44.746 207.19 46.5103 207.694 47.2637 207.835C48.6462 208.094 51.0567 208.596 54.3887 209.335C56.6136 209.826 58.6799 209.678 60.7168 208.913C62.702 208.165 64.5772 206.798 66.3418 204.554C67.6391 202.902 67.8418 201.613 67.4668 200.194C67.0812 198.744 66.8292 197.293 66.623 195.882C65.4298 196.088 64.1967 196.197 62.9199 196.022C59.9005 195.609 57.307 194.11 55.1855 192.226C52.6056 189.935 50.0638 188.365 47.5918 187.397C45.1918 186.455 41.3902 184.076 41.3574 179.241C41.3349 175.481 43.855 172.581 45.5762 170.897C45.7745 170.702 45.8759 170.533 45.9512 170.429C45.8362 170.182 45.5557 169.705 44.873 168.976C42.6751 166.626 40.4588 163.22 40.8887 159.085C41.3396 154.774 44.4116 152.012 47.2168 150.366C48.6171 149.544 48.9986 148.929 49.0918 148.772C49.0819 148.722 49.0781 148.637 49.0449 148.538C47.355 143.495 47.7928 138.411 50.6387 133.866C50.8137 133.587 50.8616 133.421 50.8262 133.163C50.7704 132.764 50.4689 131.877 49.4668 130.491C47.6724 128.004 46.2702 125.012 46.2793 121.679C46.2924 118.156 47.8863 115.213 50.1699 112.96C52.1748 110.983 52.931 109.192 53.123 107.616C53.6932 102.967 55.8924 98.8504 59.1699 95.335C60.2348 94.1907 60.8612 93.338 61.1855 92.7568C61.3656 92.432 61.4199 92.2412 61.4199 92.2412C61.4561 91.013 61.7105 89.4168 62.7793 87.9287C64.0279 86.2013 65.7874 85.3423 67.3262 85.0225C69.9081 84.4921 72.5413 85.2699 74.2637 85.9131C74.3733 85.953 74.4252 86.0054 74.4512 86.0068C74.4602 86.0067 74.5633 85.9807 74.7324 85.9131C75.1283 85.7513 75.96 85.2224 77.1699 83.8037C79.0038 81.6541 81.0643 79.7483 83.3574 78.5068C84.015 78.1522 84.7307 77.8115 85.4668 77.5693C84.9901 74.6809 85.091 71.7882 85.7012 68.9443C84.856 68.8071 83.8614 68.5392 82.6543 68.4287C81.2989 68.3048 79.5355 68.6797 77.2168 70.4443C76.3621 71.0947 75.2152 71.9157 73.9824 72.4131C73.4526 72.6249 72.0254 73.1558 70.2793 72.8818C69.2781 72.7238 68.12 72.2867 67.0918 71.3818C66.0701 70.4798 65.4973 69.3915 65.2168 68.4756C64.7303 66.8745 65.0051 65.4641 65.123 64.9131C65.2759 64.2066 65.4762 63.5514 65.6855 63.0381C66.1123 61.992 66.7292 60.8252 67.4199 59.6162C68.2339 58.1921 68.3623 57.2348 68.3105 56.6162C68.2569 56.007 67.9721 55.0957 66.9512 53.8975C63.0713 49.3354 60.3687 43.4004 63.1074 37.2568C63.5258 36.3195 63.8507 35.3047 64.1855 34.2568C62.2714 34.8092 60.3439 35.2256 58.373 35.3818ZM777.529 62.2412C774.287 63.4105 771.195 64.6486 768.248 65.9443C764.679 67.5137 760.909 68.6362 756.951 69.2725C754.813 69.6154 753.169 70.4809 751.842 71.9912C749.314 74.8712 746.555 77.4783 743.545 79.7725C742.087 80.883 741.122 82.3569 740.686 84.5068C740.587 84.995 740.415 85.4711 740.311 85.9131C740.861 85.5301 741.391 85.115 741.951 84.7412C745.652 82.2715 749.724 80.5671 754.139 79.6787C759.443 78.6132 764.514 79.722 768.951 82.8193C772.246 85.1198 775.236 87.4532 777.857 89.8506C781.881 93.5334 783.339 98.4895 782.123 103.772C781.702 105.623 781.845 107.611 782.826 109.913C785.043 115.114 784.555 120.444 781.279 125.101C780.367 126.401 780.155 127.628 780.717 129.366C781.61 132.121 781.758 135.065 780.857 137.944C779.97 140.766 778.214 143.105 776.076 144.976C775.919 145.115 775.814 145.224 775.748 145.304C775.81 145.512 775.96 145.966 776.451 146.663C779.601 151.139 781.528 156.14 780.764 161.382C780.274 164.738 779.648 168.072 778.842 171.366C777.846 175.43 775.906 179.2 773.17 182.616C771.084 185.22 769.248 187.836 767.686 190.491C766.874 191.872 766.619 193.341 767.217 195.319C767.899 197.578 768.155 199.836 768.061 202.069C769.682 201.734 771.393 201.587 773.17 201.835C776.827 202.346 780.46 203.299 784.045 204.647C785.558 205.215 786.952 205.212 788.404 204.929C787.598 202.026 787.427 198.971 787.748 195.835C788.294 190.521 791.347 186.254 795.576 182.991C798.195 180.972 799.14 179.211 799.42 177.882C799.74 176.338 799.58 174.337 798.295 171.647C797.06 169.068 796.386 166.185 796.748 163.21C797.118 160.211 798.473 157.619 800.404 155.476C802.569 153.075 804.204 150.663 805.373 148.257C806.048 146.867 806.203 145.282 805.467 143.101C803.746 138.019 804.214 132.884 807.154 128.335C807.783 127.362 808.112 126.077 807.201 123.694C805.319 118.761 805.064 113.697 806.92 108.835C808.595 104.453 811.416 100.81 815.217 97.96C818.923 95.1807 823.107 93.3737 827.686 92.5693C828.479 92.4276 829.71 91.9643 830.779 88.7256C831.761 85.7388 833.33 82.8671 835.842 80.8037C838.465 78.6519 841.605 77.755 844.842 77.8975C849.095 78.0901 853.513 78.718 858.014 79.6787C864.33 81.035 868.778 85.0857 870.904 91.1631C872.365 95.3487 873.761 99.2587 875.029 102.882C876.202 106.232 875.982 109.777 874.139 112.96C872.452 115.868 869.672 117.985 866.732 119.569C864.713 120.66 863.665 121.582 863.17 122.194L862.842 122.71C863.071 126.522 862.738 130.312 861.857 134.007C861.558 135.289 861.679 137.138 863.17 139.866C864.658 142.591 865.477 145.809 864.67 149.194C863.866 152.542 861.707 155.097 859.232 156.929C859.065 157.053 858.951 157.17 858.857 157.257C858.954 157.462 859.101 157.766 859.373 158.147C861.126 160.604 862.484 163.472 862.654 166.632C862.831 169.958 861.636 172.925 859.607 175.351C857.546 177.812 855.945 180.314 854.732 182.804C854.031 184.245 853.849 185.884 854.545 188.054C855.729 191.751 856.632 195.43 857.311 199.069C857.851 201.971 857.75 204.892 857.217 207.835C857.442 207.616 857.776 207.479 858.014 207.226C861.781 203.2 866.307 200.251 871.607 199.913C874.841 199.707 877.925 200.101 880.842 200.991C882.152 198.338 883.363 195.681 884.311 192.976C884.803 191.557 884.838 189.792 883.842 187.351C882.754 184.686 882.315 181.778 882.951 178.819C883.589 175.866 885.201 173.366 887.264 171.366L887.311 171.272C887.21 170.999 886.998 170.432 886.326 169.585C882.701 165.033 880.269 159.437 882.107 153.601C883.279 149.888 885.085 146.37 887.451 143.054C889.058 140.804 890.032 138.544 890.498 136.304C891.164 133.103 891.912 129.918 892.701 126.741C893.421 123.847 893.994 120.915 894.389 117.976C894.832 114.669 895.387 111.383 896.076 108.132C896.499 106.136 896.378 104.155 895.654 102.085C894.658 99.245 893.551 96.6288 892.326 94.2568C890.704 91.1161 889.562 87.8462 888.998 84.5068C888.381 80.8326 888.689 76.259 889.561 71.1943C884.746 71.258 880.235 70.2225 876.436 67.4443C874.207 65.8105 871.73 64.5439 869.029 63.6475C866.534 62.8196 864.023 62.5146 861.436 62.7568C859.918 62.8998 858.36 63.62 856.701 65.71C852.906 70.5031 847.583 72.6937 841.514 71.8037C840.501 71.6544 840.311 71.8507 840.482 71.7568C840.418 71.8548 840.325 72.071 840.201 72.4131C838.361 77.5066 834.866 81.3335 829.795 83.2881C827.5 84.1701 825.941 85.4432 824.873 87.0381C822.797 90.1354 819.425 93.7354 814.514 93.835C809.724 93.9249 806.377 90.7833 804.295 87.7412C802.596 85.2572 801.056 82.796 799.701 80.3818C798.291 77.8678 796.901 74.9167 795.529 71.5693C795.469 71.4222 795.386 71.323 795.342 71.2412C795.276 71.2489 795.195 71.2724 795.107 71.2881C788.612 72.4482 783.475 68.9378 779.92 64.0693C778.908 62.6862 778.213 62.286 777.998 62.1943C777.942 62.171 777.916 62.1483 777.904 62.1475C777.897 62.1473 777.764 62.1566 777.529 62.2412ZM288.529 69.2256C285.528 70.7621 282.138 71.9184 278.732 71.7568C278.676 71.8688 278.608 71.991 278.545 72.1318C277.312 74.8811 276.352 77.6553 275.639 80.4287C275.288 81.7944 275.38 83.6236 276.717 86.2412C278.303 89.345 278.79 93.08 276.951 96.6475C275.316 99.8181 272.297 101.855 269.357 103.257C269.243 103.311 269.128 103.346 269.029 103.397C272.867 107.973 275.54 113.88 272.779 119.991C271.028 123.864 268.359 127.366 264.951 130.491C264.081 131.289 263.787 131.858 263.686 132.179C263.598 132.456 263.527 132.867 263.732 133.585C264.925 137.707 265.364 141.848 264.904 145.913C264.525 149.261 264.002 152.6 263.357 155.897C262.978 157.856 263.112 160.098 264.014 162.741C265.113 165.964 264.927 169.382 263.123 172.491C261.471 175.338 258.815 177.366 255.998 178.819C254.201 179.746 253.499 180.469 253.279 180.788C253.194 180.912 253.174 180.935 253.186 180.882C253.198 180.824 253.208 180.851 253.232 180.976C253.784 183.806 254.781 186.827 256.279 190.022C258.658 195.103 258.739 200.499 255.67 205.397C256.136 205.638 256.656 205.957 257.264 206.241C257.887 206.531 258.303 206.571 258.623 206.522C259 206.462 259.666 206.24 260.639 205.491C264.549 202.483 268.882 200.58 273.576 200.335C274.242 200.301 274.857 200.224 275.404 200.194C275.823 196.995 276.323 193.809 276.857 190.632C277.566 186.425 279.351 182.522 282.014 179.007C283.58 176.942 284.38 174.904 284.592 172.913C285.033 168.788 286.412 164.903 288.623 161.288C289.411 160 289.628 158.639 288.998 156.694C287.284 151.44 288.03 146.211 291.342 141.741C292.299 140.447 292.599 139.172 292.092 137.335C291.314 134.52 291.296 131.541 292.467 128.663C293.621 125.836 295.67 123.658 298.045 122.054C298.416 121.803 298.59 121.624 298.654 121.538C298.708 121.466 298.739 121.432 298.748 121.397C298.768 121.315 298.86 120.725 298.326 119.335C296.198 113.82 295.977 108.038 299.076 102.929C300.651 100.333 302.572 97.997 304.701 95.8037C304.286 95.6499 303.818 95.5314 303.389 95.2412C300.331 93.1675 300.771 89.8374 300.811 89.5225C300.913 88.733 301.119 88.136 301.186 87.9756C301.286 87.7329 301.413 87.5602 301.467 87.46C301.647 87.1235 301.83 86.8673 301.842 86.8506C301.922 86.7344 301.987 86.6243 302.029 86.5693L302.826 85.585C303.185 85.1648 303.773 84.5423 304.514 83.6631C305.171 82.8781 305.378 82.3039 305.451 81.9287C305.518 81.5704 305.517 81.0413 305.217 80.2412C304.473 78.2733 304.117 76.2633 304.045 74.2881C302.737 74.4894 301.41 74.574 300.061 74.4287C296.688 74.0636 293.759 72.5526 291.342 70.3037C290.28 69.3149 289.6 69.0856 289.373 69.0381C289.252 69.0131 289.022 68.9733 288.529 69.2256ZM714.857 65.9443C711.503 70.2423 707.112 73.126 701.92 73.3975C702.406 77.0121 701.763 80.6019 699.764 83.9443C699.594 84.2293 699.58 84.3992 699.623 84.6943C699.686 85.1224 699.929 86.0273 700.936 87.4131C702.74 89.8983 704.18 92.8813 704.17 96.2256C704.155 99.7486 702.56 102.697 700.279 104.944C698.281 106.913 697.476 108.67 697.279 110.241C696.709 114.891 694.557 119.008 691.279 122.522C690.093 123.793 689.941 124.723 690.342 126.038C691.862 131.027 691.389 136.006 688.654 140.476C688.57 140.613 688.562 140.702 688.561 140.71C688.557 140.739 688.535 140.808 688.561 140.944C688.639 141.357 688.982 142.283 690.154 143.757C692.142 146.255 693.84 149.499 693.576 153.226C693.29 157.161 690.935 160.058 688.279 161.991C687.105 162.844 686.776 163.465 686.686 163.679C686.638 163.791 686.53 163.981 686.686 164.522C687.953 168.917 688.124 173.357 686.92 177.647C685.946 181.113 684.588 184.479 682.936 187.772C681.602 190.429 680.543 193.157 679.748 195.882C679.375 197.184 679.413 198.965 680.686 201.554C681.205 202.609 681.535 203.736 681.951 204.788C685.275 202.032 689.369 200.39 694.092 201.507C697.517 202.32 700.75 203.909 703.889 205.96C704.622 203.449 705.194 201.172 705.436 199.069C705.819 195.721 706.333 192.383 706.982 189.085C707.365 187.128 707.223 184.884 706.326 182.241C705.231 179.019 705.412 175.597 707.217 172.491C708.873 169.646 711.569 167.613 714.389 166.163C716.177 165.24 716.892 164.509 717.107 164.194C717.183 164.082 717.165 164.051 717.154 164.101C717.142 164.158 717.178 164.132 717.154 164.007C716.607 161.175 715.602 158.158 714.107 154.96C711.721 149.851 711.596 144.406 714.717 139.491C716.184 137.184 717.083 134.851 717.529 132.507C718.329 128.309 720.21 124.486 722.967 121.069C723.726 120.13 724.173 118.901 723.482 116.522C721.99 111.37 722.251 106.223 724.748 101.522C726.699 97.8505 729.27 94.6435 732.436 91.9131C732.103 91.826 731.742 91.7867 731.404 91.6318C729.675 90.837 728.856 89.4823 728.592 89.0068C728.035 88.0021 727.888 87.0224 727.842 86.7568C727.704 85.9594 727.63 85.0186 727.607 84.2256C727.536 81.7371 727.126 79.0073 726.342 76.0225C725.836 74.097 725.606 72.1659 725.592 70.2568C724.776 70.2328 723.942 70.1748 723.107 69.9756C720.052 69.245 717.502 67.4352 715.42 65.2881C715.259 65.4577 715.071 65.6717 714.857 65.9443ZM447.576 63.3662C442.909 65.4351 438.003 65.7631 433.186 64.1162C433.017 64.0585 432.983 64.0728 433.045 64.0693C433.103 64.0643 433.111 64.0835 433.045 64.1162C432.83 64.226 432.122 64.675 431.123 66.1787C429.351 68.8525 426.864 71.4063 423.389 72.4131C419.741 73.4637 416.267 72.4878 413.451 70.7725C412.516 70.201 412 70.0859 411.857 70.0693C411.807 70.1084 411.764 70.2064 411.67 70.3037C408.662 73.4167 405.218 75.7975 401.357 77.2412C398.303 78.3832 395.131 79.4327 391.842 80.3818C389.266 81.1248 386.856 82.2117 384.67 83.6631C383.784 84.2574 382.924 85.3067 382.654 87.835C382.288 91.3083 380.683 94.5104 377.545 96.6006C374.819 98.4131 371.548 98.9219 368.404 98.9443C370.186 104.227 370.707 110.091 366.998 114.788C364.606 117.818 361.52 120.576 357.904 123.132C356.957 123.801 356.705 124.282 356.639 124.444C356.59 124.562 356.507 124.884 356.686 125.616C357.666 129.641 358.075 133.591 357.857 137.429C357.676 140.604 357.477 143.787 357.295 146.944C357.194 148.692 357.66 150.545 358.982 152.616C360.79 155.446 361.363 158.725 360.576 162.038C359.842 165.112 358.038 167.807 355.889 170.101C354.843 171.218 354.513 171.944 354.389 172.257C356.012 174.284 358.105 175.919 360.764 177.179C365.48 179.413 369.047 183.037 370.467 188.147C371.026 190.167 372.015 191.711 373.42 192.929C376.209 195.346 378.727 198.236 380.967 201.554C381.149 201.822 381.273 201.966 381.342 202.022C381.396 202.065 381.463 202.063 381.482 202.069C381.574 202.093 382.045 202.181 383.076 201.882C387.509 200.598 391.867 200.154 395.967 200.897C399.045 201.456 402.152 202.125 405.248 202.913C407.619 203.515 410.044 203.745 412.514 203.616C415.48 203.461 418.446 203.221 421.373 202.913C425.294 202.503 429.293 202.945 433.279 204.132C435.463 204.78 437.245 204.714 438.857 204.085C442.49 202.669 446.345 201.871 450.389 201.694C451.694 201.636 452.617 201.179 453.576 199.632C456.357 195.136 460.504 192.228 465.717 191.288C466.533 191.141 466.912 190.865 467.123 190.679C467.34 190.487 467.675 190.107 467.967 189.226C469.843 183.513 474.263 180.011 479.967 178.772C479.944 178.575 479.987 178.32 479.92 178.022C478.765 172.911 478.645 167.801 480.67 163.397C481.92 160.68 483.171 157.96 484.42 155.241C486.003 151.797 488.306 148.638 491.17 145.726C493.286 143.576 495.067 141.236 496.514 138.741C497.242 137.483 497.401 136.244 496.701 134.476C494.921 129.985 494.596 125.316 495.998 120.741C496.097 120.419 496.124 120.13 496.186 119.897C495.577 118.636 495.426 117.46 495.482 116.663C495.607 114.94 496.374 113.567 496.701 113.007C497.458 111.711 498.628 110.218 499.982 108.647H499.936C496.871 107.116 493.936 104.723 492.576 101.101C491.186 97.3802 491.97 93.6927 493.514 90.6006C493.833 89.9621 493.948 89.4643 494.029 89.1475C489.703 86.7207 486.358 83.289 484.326 78.835C484.295 78.7672 484.253 78.7294 484.232 78.6943C484.155 78.685 484.04 78.6949 483.904 78.6943C483.533 78.6938 482.98 78.7494 482.217 78.9287C479.273 79.6196 476.147 79.7475 473.17 78.7412C470.055 77.6824 467.676 75.552 466.092 72.835C464.918 70.8243 463.711 70.1687 462.529 69.9287C458.233 69.0531 454.317 66.9169 450.764 63.9287C449.968 63.2609 449.417 63.1305 449.123 63.085C448.847 63.0424 448.375 63.0153 447.576 63.3662ZM610.326 63.3662C605.658 65.4358 600.754 65.7652 595.936 64.1162C595.791 64.0681 595.751 64.0701 595.795 64.0693C595.581 64.1779 594.878 64.6635 593.873 66.1787C592.098 68.8567 589.623 71.4094 586.139 72.4131C582.486 73.4639 579.019 72.4933 576.201 70.7725C575.313 70.23 574.824 70.0937 574.654 70.0693C574.603 70.1075 574.527 70.1934 574.42 70.3037C571.413 73.4133 567.965 75.7985 564.107 77.2412C561.055 78.382 557.879 79.4336 554.592 80.3818C552.019 81.1248 549.651 82.213 547.467 83.6631C546.575 84.2552 545.723 85.2922 545.451 87.835C545.085 91.3113 543.438 94.5105 540.295 96.6006C537.578 98.4045 534.335 98.8722 531.201 98.8975C532.993 104.189 533.465 110.08 529.748 114.788C527.356 117.815 524.268 120.578 520.654 123.132C519.716 123.797 519.455 124.283 519.389 124.444C519.339 124.567 519.26 124.899 519.436 125.616C520.417 129.643 520.825 133.589 520.607 137.429C520.426 140.603 520.274 143.787 520.092 146.944C519.991 148.689 520.415 150.549 521.732 152.616C523.54 155.446 524.16 158.725 523.373 162.038C522.64 165.115 520.79 167.806 518.639 170.101C517.636 171.174 517.275 171.882 517.139 172.21C518.763 174.251 520.847 175.912 523.514 177.179C528.232 179.414 531.845 183.034 533.264 188.147C533.824 190.168 534.811 191.71 536.217 192.929C538.999 195.342 541.481 198.244 543.717 201.554C543.914 201.846 544.076 201.973 544.139 202.022C544.188 202.061 544.214 202.063 544.232 202.069C544.26 202.078 544.697 202.21 545.826 201.882C550.261 200.595 554.615 200.156 558.717 200.897C561.796 201.456 564.9 202.125 567.998 202.913C570.373 203.518 572.79 203.745 575.264 203.616C578.234 203.461 581.192 203.222 584.123 202.913C588.047 202.5 592.039 202.945 596.029 204.132C598.21 204.781 599.997 204.709 601.607 204.085C605.236 202.67 609.1 201.873 613.139 201.694C614.448 201.637 615.412 201.186 616.373 199.632C619.156 195.137 623.298 192.225 628.514 191.288C629.32 191.141 629.711 190.864 629.92 190.679C630.138 190.482 630.477 190.093 630.764 189.226C632.643 183.505 637.049 180.007 642.764 178.772C642.74 178.573 642.738 178.324 642.67 178.022C641.515 172.91 641.441 167.802 643.467 163.397C644.715 160.682 645.969 157.957 647.217 155.241C648.802 151.795 651.1 148.638 653.967 145.726C656.086 143.573 657.863 141.241 659.311 138.741C660.037 137.485 660.194 136.239 659.498 134.476C657.718 129.985 657.346 125.316 658.748 120.741C658.853 120.399 658.872 120.093 658.936 119.851C658.348 118.606 658.177 117.45 658.232 116.663C658.356 114.949 659.121 113.573 659.451 113.007L662.732 108.647C659.668 107.116 656.686 104.723 655.326 101.101C653.941 97.3862 654.724 93.6889 656.264 90.6006C656.581 89.9657 656.697 89.4642 656.779 89.1475C652.464 86.7228 649.152 83.279 647.123 78.835C647.095 78.7738 647.049 78.7286 647.029 78.6943C646.953 78.6841 646.844 78.6955 646.701 78.6943C646.333 78.6929 645.774 78.7514 645.014 78.9287C642.062 79.6222 638.905 79.7554 635.92 78.7412C632.805 77.6824 630.426 75.552 628.842 72.835C627.673 70.8369 626.503 70.17 625.326 69.9287C621.024 69.0549 617.071 66.9203 613.514 63.9287C612.724 63.2688 612.165 63.1299 611.873 63.085C611.592 63.0452 611.116 63.0159 610.326 63.3662ZM201.389 66.0381C197.757 69.6949 193.635 72.5301 189.014 73.3037C186.272 73.7627 183.569 74.2983 180.904 74.8975C177.496 75.664 173.838 75.9077 169.982 75.6943C167.273 75.5433 164.616 75.8831 162.014 76.6787C160.741 77.0678 159.928 77.719 159.389 79.3975C158.714 81.5093 157.749 83.4455 156.576 85.21C159.268 83.565 162.3 83.3479 165.014 83.8506C168.51 84.4979 171.374 84.5596 173.686 84.1787C178.939 83.3146 183.623 85.0917 187.279 88.8193C188.898 90.4699 190.419 91.1323 191.826 91.3037C194.232 91.6005 197.091 92.5716 199.045 95.1943C200.985 97.8051 201.142 100.837 200.779 103.21C200.738 103.502 200.7 104.968 203.545 107.944C205.719 110.214 207.794 113.378 207.717 117.226C207.626 121.284 205.223 124.239 202.654 126.179C201.492 127.057 201.127 127.691 201.014 127.96C200.945 128.125 200.863 128.36 201.014 128.897C202.263 133.294 202.371 137.738 201.154 142.022C200.171 145.48 198.876 148.864 197.217 152.147C195.877 154.797 194.786 157.49 193.982 160.21C193.597 161.515 193.64 163.311 194.92 165.929C196.447 169.057 196.825 172.765 194.967 176.288C193.307 179.431 190.321 181.465 187.373 182.851C187.273 182.898 187.18 182.946 187.092 182.991C190.897 187.579 193.531 193.498 190.748 199.585C189.968 201.291 188.92 202.858 187.795 204.413C189.247 204.417 190.574 204.415 191.779 204.319C195.138 204.054 198.498 203.94 201.857 203.944C203.856 203.947 206.038 203.367 208.467 201.976C211.205 200.406 213.973 199.287 216.67 198.554C216.096 195.945 215.221 193.169 213.857 190.257C211.47 185.155 211.359 179.702 214.467 174.788C215.931 172.481 216.881 170.147 217.326 167.804C218.104 163.699 219.838 159.864 222.389 156.366C222.786 155.817 222.889 155.422 222.904 155.101C222.92 154.724 222.807 154.015 222.248 152.897C220.043 148.487 219.014 143.863 219.67 139.21C220.169 135.68 220.979 132.203 222.107 128.804C223.005 126.101 223.627 123.357 223.982 120.601C224.384 117.49 224.764 114.384 225.107 111.319C225.562 107.294 226.902 103.43 229.045 99.7881C230.15 97.9084 230.373 96.3147 230.076 94.7725C229.388 91.1872 229.117 87.4369 229.232 83.5693C229.252 82.8382 229.123 82.5263 229.045 82.3975C228.957 82.2557 228.669 81.8809 227.826 81.46C223.485 79.287 220.118 76.0089 217.936 71.71C217.777 71.4003 217.636 71.2316 217.561 71.1475L217.467 71.0537H217.42C217.396 71.0466 217.35 71.0166 217.279 71.0068C217.126 70.9866 216.83 70.9926 216.389 71.0537C210.693 71.84 205.72 69.7119 201.857 65.6162C201.727 65.7278 201.558 65.8678 201.389 66.0381ZM97.6074 85.4912C96.5808 87.5115 94.7739 88.8741 92.6387 89.2881C91.2349 89.5565 89.9634 89.3451 88.9824 89.1006C88.4889 89.39 87.5844 90.0933 86.3105 91.585C84.3355 93.9009 81.9913 95.946 79.1855 97.0693C76.8521 98.0017 74.4112 98.167 72.0137 97.6787C70.9571 99.8725 69.478 101.884 67.9355 103.538C66.0773 105.531 65.2886 107.361 65.0762 109.069C64.4925 113.858 62.1193 118.024 58.6074 121.491C58.4823 121.615 58.3752 121.706 58.3262 121.772C58.3612 121.946 58.5133 122.485 59.2168 123.46C60.9523 125.859 62.2774 128.576 62.6855 131.522C63.1106 134.614 62.4581 137.615 60.8105 140.241C60.0236 141.5 59.7907 142.82 60.4355 144.741C61.4648 147.818 61.4154 151.099 59.873 154.163C58.4535 156.969 56.0272 158.994 53.4512 160.538C53.5132 160.609 53.5665 160.695 53.6387 160.772C55.9096 163.2 57.873 166.299 58.0449 170.007C58.1846 173.102 57.0095 175.727 55.3262 177.882C58.0469 179.32 60.6948 181.043 63.1543 183.226C64.0583 184.029 64.5432 184.114 64.5605 184.116H64.6543C64.7337 184.095 64.8975 184.001 65.1699 183.835C66.1201 183.257 67.1782 182.719 68.2637 182.335C69.2288 181.994 70.9244 181.545 72.8574 181.96C75.3064 182.491 77.116 184.191 77.9199 186.319C78.5623 188.022 78.4757 189.675 78.3418 190.679C78.1574 192.083 78.2649 194.165 79.0449 197.101C79.3553 198.268 79.4514 199.433 79.5137 200.569C80.3148 199.163 81.4556 197.705 82.7012 196.304C84.6784 194.08 85.8762 191.898 86.498 189.788C87.22 187.336 87.5718 184.797 87.4824 182.147C87.3988 179.692 86.7934 176.978 85.5605 173.991C83.7744 169.664 83.0205 165.233 83.6387 160.819C84.2468 156.511 86.023 152.522 88.748 148.96C89.5707 147.882 89.8201 146.907 89.1699 145.21C88.1398 142.519 87.7478 139.615 88.4668 136.679C89.1829 133.763 90.8363 131.326 92.9199 129.366C93.6402 128.689 93.7117 128.317 93.7168 128.288C93.7294 128.195 93.7616 127.788 93.3418 126.929C91.1688 122.492 90.1732 117.819 90.9512 113.147C91.5681 109.455 92.6859 105.87 94.2793 102.413C95.7441 99.2355 97.3821 96.083 99.2012 92.9912C99.6613 92.2038 99.9489 91.1529 98.8262 88.96C98.2704 87.8725 97.8599 86.7031 97.6074 85.4912ZM419.123 82.3506C423.677 78.9119 429.039 78.2381 434.311 80.3818C437.31 81.6008 440.088 82.419 442.654 82.8662C445.351 83.3358 448.619 83.6389 452.498 83.7568C455.525 83.8486 458.983 84.7996 461.404 87.6943C463.739 90.5006 464.141 93.9783 463.889 96.9287C463.564 100.683 463.898 103.267 464.545 104.944C465.734 108.006 466.75 111.225 467.592 114.554C467.956 115.993 468.297 117.086 468.576 117.882C468.784 118.474 468.952 118.771 468.998 118.866C470.832 121.662 470.199 124.689 469.748 126.179C469.222 127.913 468.27 129.684 467.217 131.382C466.449 132.618 466.286 133.822 467.076 135.647C468.248 138.363 468.731 141.417 467.873 144.507C467.027 147.544 465.087 149.915 462.811 151.726C460.935 153.215 460.77 154.291 460.889 155.288C461.342 159.115 461.404 162.994 461.123 166.913C460.891 170.148 459.53 173.196 456.764 175.351C454.212 177.336 451.045 178.094 448.045 178.304C447.509 178.343 447.214 178.401 447.107 178.444C447.029 178.607 446.806 179.292 446.873 180.882C447.004 184.021 446.666 187.888 444.248 190.819C441.327 194.345 437.114 194.656 433.842 193.96C430.985 193.354 428.925 193.778 427.232 194.757C424.637 196.26 421.609 196.969 418.42 196.351C415.338 195.748 412.791 194.026 410.779 191.944C409.293 190.403 407.966 190.05 406.092 190.491C403.3 191.146 399.905 191.237 396.857 189.413C393.727 187.534 392.28 184.411 391.701 181.538C390.853 177.32 390.532 173.264 390.857 169.444C391.047 167.197 390.773 165.172 390.014 163.304C388.774 160.253 387.694 157.039 386.826 153.694C385.735 149.474 385.868 145.22 387.248 141.085C387.987 138.872 388.253 136.579 387.998 134.147C387.683 131.139 387.166 127.914 386.404 124.491C385.264 119.361 386.085 114.39 389.17 110.101C390.543 108.194 391.475 105.908 391.842 103.116C392.235 100.11 393.482 97.251 395.826 95.0537C398.097 92.9357 400.949 91.8539 403.842 91.3506C407.46 90.7206 409.722 89.636 411.107 88.5381C413.567 86.5853 416.246 84.5235 419.123 82.3506ZM581.92 82.3506C586.469 78.9184 591.795 78.2438 597.061 80.3818C600.057 81.6004 602.84 82.418 605.404 82.8662C608.104 83.3366 611.41 83.639 615.295 83.7568C618.317 83.8516 621.738 84.8051 624.154 87.6943C626.497 90.5031 626.892 93.9741 626.639 96.9287C626.314 100.689 626.693 103.267 627.342 104.944C628.531 108.006 629.547 111.225 630.389 114.554C630.754 115.995 631.094 117.086 631.373 117.882C631.575 118.457 631.699 118.763 631.748 118.866C633.584 121.666 632.949 124.691 632.498 126.179C631.973 127.909 631.064 129.688 630.014 131.382C629.246 132.618 629.036 133.822 629.826 135.647C631.001 138.365 631.481 141.414 630.623 144.507C629.775 147.547 627.841 149.915 625.561 151.726C623.685 153.215 623.52 154.291 623.639 155.288C624.092 159.117 624.154 162.993 623.873 166.913C623.641 170.15 622.282 173.196 619.514 175.351C616.966 177.329 613.836 178.093 610.842 178.304C610.261 178.344 609.95 178.404 609.857 178.444C609.775 178.619 609.603 179.317 609.67 180.882C609.801 184.024 609.424 187.887 606.998 190.819C604.081 194.34 599.908 194.652 596.639 193.96C593.775 193.35 591.678 193.775 589.982 194.757C587.386 196.258 584.36 196.974 581.17 196.351C578.085 195.746 575.542 194.03 573.529 191.944C572.046 190.406 570.756 190.055 568.889 190.491C566.097 191.148 562.704 191.235 559.654 189.413C556.516 187.535 555.077 184.415 554.498 181.538C553.649 177.319 553.329 173.265 553.654 169.444C553.844 167.198 553.523 165.172 552.764 163.304C551.525 160.255 550.49 157.036 549.623 153.694C548.53 149.47 548.662 145.224 550.045 141.085C550.784 138.873 551.049 136.578 550.795 134.147C550.48 131.139 549.916 127.914 549.154 124.491C548.015 119.359 548.878 114.391 551.967 110.101C553.337 108.195 554.225 105.905 554.592 103.116C554.985 100.11 556.232 97.251 558.576 95.0537C560.844 92.933 563.701 91.8562 566.592 91.3506C570.216 90.7199 572.519 89.6377 573.904 88.5381C576.364 86.5857 579.043 84.5229 581.92 82.3506ZM589.139 91.9131C586.324 94.0389 583.733 96.0738 581.357 97.96C577.905 100.698 573.514 102.318 568.654 103.163C567.34 103.393 566.876 103.73 566.779 103.819C566.735 103.861 566.724 103.926 566.686 104.007C566.642 104.097 566.547 104.29 566.498 104.663C565.898 109.251 564.3 113.43 561.67 117.085C560.755 118.356 560.405 119.812 560.873 121.913C561.719 125.716 562.333 129.373 562.701 132.882C563.13 136.975 562.728 141.01 561.436 144.882C560.788 146.821 560.69 148.716 561.201 150.694C561.945 153.561 562.844 156.272 563.873 158.804C565.381 162.514 565.952 166.433 565.607 170.476C565.405 172.847 565.563 175.6 566.17 178.772C572.258 177.357 577.826 179.118 582.154 183.601L583.467 184.585C583.523 184.572 583.698 184.515 583.982 184.351C588.184 181.92 592.827 181.272 597.623 182.007C597.623 181.813 597.68 181.583 597.67 181.351C597.524 177.859 598.117 174.148 600.436 171.132C602.89 167.94 606.438 166.6 609.998 166.351C610.808 166.294 611.371 166.18 611.732 166.069C611.799 166.048 611.871 165.994 611.92 165.976C612.141 162.817 612.092 159.725 611.732 156.694C611.034 150.804 613.628 145.91 618.107 142.351C618.553 141.997 618.776 141.684 618.904 141.507C618.966 141.422 619.027 141.356 619.045 141.319V141.272H619.092L619.045 141.179C619.033 141.064 618.984 140.784 618.811 140.382C616.59 135.234 616.803 129.875 619.795 125.054C620.182 124.43 620.48 123.922 620.686 123.507L620.732 123.366C619.985 121.635 619.292 119.594 618.764 117.507C618.035 114.627 617.14 111.882 616.139 109.304C615.368 107.319 614.912 105.177 614.686 102.929V95.71C610.492 95.5747 606.686 95.2613 603.342 94.6787C599.815 94.0625 596.222 92.9799 592.561 91.4912C591.161 90.9221 590.278 91.0541 589.139 91.9131ZM426.389 91.9131C423.577 94.0367 420.981 96.0755 418.607 97.96C415.157 100.699 410.762 102.317 405.904 103.163C404.629 103.385 404.149 103.715 404.029 103.819C403.985 103.861 403.928 103.926 403.889 104.007C403.844 104.102 403.748 104.302 403.701 104.663C403.101 109.246 401.545 113.433 398.92 117.085C398.005 118.356 397.655 119.812 398.123 121.913C398.969 125.715 399.583 129.374 399.951 132.882C400.38 136.977 399.933 141.007 398.639 144.882C397.99 146.823 397.938 148.714 398.451 150.694C399.195 153.561 400.094 156.272 401.123 158.804C402.629 162.512 403.155 166.435 402.811 170.476C402.608 172.846 402.766 175.602 403.373 178.772C409.475 177.346 415.069 179.105 419.404 183.601C420.095 184.317 420.533 184.486 420.67 184.538C420.709 184.53 420.882 184.525 421.186 184.351C425.383 181.92 430.035 181.277 434.826 182.007C434.826 181.813 434.883 181.583 434.873 181.351C434.728 177.864 435.328 174.146 437.639 171.132C440.093 167.94 443.687 166.6 447.248 166.351C448.062 166.292 448.625 166.181 448.982 166.069C449.058 166.046 449.117 165.996 449.17 165.976C449.391 162.818 449.295 159.724 448.936 156.694C448.239 150.812 450.841 145.908 455.311 142.351C455.756 141.997 456.026 141.684 456.154 141.507C456.211 141.427 456.231 141.354 456.248 141.319L456.295 141.272V141.179C456.283 141.064 456.234 140.784 456.061 140.382C453.836 135.231 454.051 129.878 457.045 125.054C457.431 124.43 457.731 123.921 457.936 123.507C457.957 123.463 457.963 123.406 457.982 123.366C457.233 121.632 456.497 119.6 455.967 117.507C455.239 114.628 454.389 111.88 453.389 109.304C452.618 107.319 452.162 105.178 451.936 102.929V95.71C447.733 95.5752 443.941 95.2622 440.592 94.6787C437.057 94.0627 433.434 92.9839 429.764 91.4912C428.379 90.9317 427.517 91.0668 426.389 91.9131ZM507.389 124.819C507.03 126.368 507.072 128.033 507.857 130.022C508.092 130.614 508.201 131.256 508.373 131.851C508.225 130.758 508.051 129.605 507.764 128.429C507.475 127.243 507.384 126.031 507.389 124.819ZM1010.12 81.9756C1013.64 83.0263 1015.72 85.7061 1016.83 88.3506C1017.69 90.4289 1019.09 92.2799 1021.33 93.835C1023.74 95.5169 1025.94 97.9806 1026.53 101.429C1027.1 104.783 1025.94 107.85 1024.42 110.288C1022.82 112.865 1022.87 114.314 1023.06 115.022C1023.77 117.618 1023.76 120.586 1022.17 123.319C1020.66 125.903 1018.24 127.444 1015.94 128.382C1012.97 129.585 1009.82 129.632 1006.79 128.522C1004.06 127.516 1001.76 125.667 999.811 123.507C999.674 123.677 999.548 123.89 999.389 124.116C997.495 126.818 994.992 129.399 991.701 130.585C987.952 131.93 984.304 131.057 981.389 128.991C979.713 127.806 978.775 127.918 977.779 128.382C972.938 130.631 967.864 130.561 963.061 128.241C961.482 127.478 960.223 126.925 959.311 126.507C958.429 126.103 958.032 125.93 957.951 125.897C955.586 125.102 954.461 123.247 954.061 122.476C953.59 121.567 953.327 120.644 953.17 119.944C952.847 118.498 952.697 116.712 952.607 114.835C952.451 111.508 953.539 108.39 955.936 105.929C958.153 103.653 961.096 102.313 964.092 101.522C965.672 101.106 965.753 100.702 965.592 100.96C965.413 101.254 965.729 101.108 965.404 99.7412C964.72 96.8619 964.418 93.1418 966.389 89.8975C968.581 86.2901 972.331 85.1886 975.436 85.0693C979.232 84.9254 982.204 84.5264 984.436 83.9443C988.274 82.9421 992.155 83.0219 995.967 84.1318C996.846 84.3881 998.452 84.3938 1001.22 83.0537C1003.65 81.873 1006.83 80.9937 1010.12 81.9756ZM1006.19 93.9756C1001.85 96.0252 997.207 96.9434 992.639 95.6162C990.901 95.1098 989.212 95.1188 987.482 95.5693C984.436 96.3648 980.916 96.7279 977.029 96.9287L977.076 96.9756C977.863 100.291 977.817 103.995 975.764 107.288C973.731 110.539 970.419 112.282 967.139 113.147C965.47 113.59 964.77 114.043 964.561 114.226L964.607 114.272C964.638 114.905 964.708 115.43 964.748 115.866C965.757 116.333 966.964 116.832 968.264 117.46C969.851 118.227 971.168 118.224 972.717 117.507C977.977 115.059 983.316 115.829 987.951 118.96H988.045C988.415 118.63 988.938 118.091 989.545 117.226C991.448 114.512 994.309 111.531 998.404 110.944C1002.89 110.304 1006.35 112.814 1008.58 115.351C1009.76 116.702 1010.57 117.143 1010.92 117.272C1011.07 117.326 1011.15 117.319 1011.15 117.319C1011.18 117.317 1011.24 117.31 1011.34 117.272C1010.36 112.586 1011.72 108.022 1014.25 103.96C1014.33 103.83 1014.34 103.685 1014.39 103.585C1010.79 101.057 1008.01 97.8478 1006.19 93.9756ZM336.904 64.96C333.834 68.668 330.04 71.4013 325.561 72.8818C325.511 72.8988 325.452 72.8682 325.42 72.8818C325.359 73.0595 325.212 73.6935 325.373 75.085C325.723 78.1174 325.505 81.3068 324.061 84.1787C323.314 85.6593 322.273 86.8686 321.107 87.8818C325.287 87.7409 329.228 87.9574 332.92 88.4912C334.912 88.7795 336.965 88.4608 339.201 87.3662C342 85.9935 344.914 85.4193 347.826 85.585C348.329 81.7622 350.341 78.396 353.451 75.7412C354.381 74.9473 354.646 74.4165 354.717 74.1943C354.771 74.0226 354.853 73.679 354.623 72.9756C354.008 71.0938 353.503 69.1734 353.123 67.21C351.54 68.1642 349.759 68.8459 347.779 69.0381C343.906 69.4077 340.556 67.8415 337.889 65.6162C337.501 65.2926 337.15 65.111 336.904 64.96ZM4.2793 83.1943C4.06849 83.8167 4.01828 84.3619 3.99805 84.6943C4.02844 84.0876 4.16284 83.5529 4.32617 83.0537C4.30772 83.1033 4.29412 83.1508 4.2793 83.1943Z" fill="#FF5050"/>
</svg>
