<svg width="266" height="266" viewBox="0 0 266 266" fill="none" xmlns="http://www.w3.org/2000/svg">
<rect width="266" height="266" fill="#FF5050"/>
<rect x="110" y="56" width="46" height="46" rx="10" fill="white"/>
<rect x="110" y="110" width="46" height="46" rx="10" fill="white"/>
<path d="M57 83.1818C57 80.8723 58.8723 79 61.1818 79H93C98.5228 79 103 83.4772 103 89V120.818C103 123.128 101.128 125 98.8182 125V125C75.7226 125 57 106.277 57 83.1818V83.1818Z" fill="white"/>
<path d="M163 83.1818C163 80.8723 164.872 79 167.182 79V79C190.277 79 209 97.7226 209 120.818V120.818C209 123.128 207.128 125 204.818 125H173C167.477 125 163 120.523 163 115V83.1818Z" fill="white"/>
<path d="M110 164H156V210V210C130.595 210 110 189.405 110 164V164Z" fill="white"/>
</svg>
