<svg width="1331" height="266" viewBox="0 0 1331 266" fill="none" xmlns="http://www.w3.org/2000/svg">
<path d="M419.6 128.6C407.333 127.8 396.133 127.2 386 126.8L385.8 148C385.8 155.2 387.333 160.867 390.4 165C393.6 169 399.2 171 407.2 171C410.267 171 413.2 170.733 416 170.2C415.467 175.133 415.2 180.133 415.2 185.2C415.2 187.6 415.333 193.067 415.6 201.6C409.733 202.667 404.8 203.333 400.8 203.6C396.8 203.867 391.6 204 385.2 204C369.6 204 358.533 200.267 352 192.8C345.6 185.2 342.4 174.667 342.4 161.2L342.6 127.4C336.333 127.667 329.8 128.067 323 128.6V93.2C329.933 93.2 335.8 91 340.6 86.6C345.4 82.2 348.267 76.9333 349.2 70.8H403.6C396.8 80.1333 389.267 87.6 381 93.2H419.6V128.6ZM509.539 202C510.339 182.4 510.739 164.333 510.739 147.8C510.739 141.933 509.272 137.267 506.339 133.8C503.539 130.333 499.939 128.6 495.539 128.6C490.872 128.6 486.872 130.867 483.539 135.4C480.339 139.933 478.739 146.133 478.739 154L478.539 153.6C478.539 175.333 478.806 191.467 479.339 202H431.539C432.606 182.8 433.139 156.8 433.139 124C433.139 91.2 432.606 65.2 431.539 46H479.139L479.339 107.6L479.139 118.2C482.339 108.867 487.072 102 493.339 97.6C499.739 93.0667 506.939 90.8 514.939 90.8C522.939 90.8 529.872 92.6 535.739 96.2C541.606 99.6667 546.006 104.4 548.939 110.4C552.006 116.4 553.539 123.133 553.539 130.6V159.4C553.539 177.133 553.872 191.333 554.539 202H509.539ZM617.002 122.4C622.602 102.267 636.535 92.2 658.802 92.2C662.668 92.2 666.402 92.4667 670.002 93L663.602 137.8C654.002 134.2 646.135 132.4 640.002 132.4C632.402 132.4 626.802 134.667 623.202 139.2C619.602 143.733 617.802 149.8 617.802 157.4V157.2L617.602 170.4C617.602 179.867 617.868 190.4 618.402 202H570.602C571.668 182.8 572.202 164.667 572.202 147.6C572.202 130.533 571.668 112.267 570.602 92.8C579.402 93.2 586.135 93.4 590.802 93.4C595.735 93.4 602.468 93.2 611.002 92.8L617.002 122.4ZM744.377 204C721.577 204 704.777 198.8 693.977 188.4C683.31 177.867 677.977 164.067 677.977 147C677.977 130.333 683.31 116.8 693.977 106.4C704.777 96 721.577 90.8 744.377 90.8C759.71 90.8 772.51 93.3333 782.777 98.4C793.177 103.333 800.843 110.067 805.777 118.6C810.71 127 813.177 136.467 813.177 147C813.177 164.2 807.443 178 795.977 188.4C784.643 198.8 767.443 204 744.377 204ZM745.177 170C753.843 170 760.31 167.933 764.577 163.8C768.843 159.667 770.977 154.133 770.977 147.2C770.977 140.667 768.843 135.333 764.577 131.2C760.31 126.933 753.843 124.8 745.177 124.8C736.51 124.8 730.177 126.867 726.177 131C722.177 135.133 720.177 140.533 720.177 147.2C720.177 154.133 722.177 159.667 726.177 163.8C730.177 167.933 736.51 170 745.177 170ZM891.642 204C868.842 204 852.042 198.8 841.242 188.4C830.576 177.867 825.242 164.067 825.242 147C825.242 130.333 830.576 116.8 841.242 106.4C852.042 96 868.842 90.8 891.642 90.8C906.976 90.8 919.776 93.3333 930.042 98.4C940.442 103.333 948.109 110.067 953.042 118.6C957.976 127 960.442 136.467 960.442 147C960.442 164.2 954.709 178 943.242 188.4C931.909 198.8 914.709 204 891.642 204ZM892.442 170C901.109 170 907.576 167.933 911.842 163.8C916.109 159.667 918.242 154.133 918.242 147.2C918.242 140.667 916.109 135.333 911.842 131.2C907.576 126.933 901.109 124.8 892.442 124.8C883.776 124.8 877.442 126.867 873.442 131C869.442 135.133 867.442 140.533 867.442 147.2C867.442 154.133 869.442 159.667 873.442 163.8C877.442 167.933 883.776 170 892.442 170ZM1129.51 202C1130.57 184.533 1131.11 166.467 1131.11 147.8C1131.11 141.8 1129.57 137.133 1126.51 133.8C1123.57 130.333 1119.64 128.6 1114.71 128.6C1110.17 128.6 1106.24 130.6 1102.91 134.6C1099.71 138.6 1098.11 144.4 1098.11 152V151.8C1098.11 175.4 1098.44 192.133 1099.11 202H1054.11C1054.91 182.4 1055.31 164.333 1055.31 147.8C1055.31 141.933 1053.84 137.267 1050.91 133.8C1048.11 130.333 1044.51 128.6 1040.11 128.6C1035.44 128.6 1031.51 130.6 1028.31 134.6C1025.24 138.467 1023.44 143.8 1022.91 150.6C1022.64 160.733 1022.51 167.933 1022.51 172.2C1022.51 181.267 1022.77 191.2 1023.31 202H975.508C976.574 182.8 977.108 164.667 977.108 147.6C977.108 130.533 976.574 112.267 975.508 92.8C984.308 93.2 991.041 93.4 995.708 93.4C1000.64 93.4 1007.37 93.2 1015.91 92.8L1021.91 122.4C1024.97 111.6 1029.84 103.667 1036.51 98.6C1043.17 93.4 1050.84 90.8 1059.51 90.8C1069.91 90.8 1078.37 93.6667 1084.91 99.4C1091.57 105.133 1095.71 112.6 1097.31 121.8C1100.37 112.333 1105.51 104.8 1112.71 99.2C1119.91 93.6 1128.11 90.8 1137.31 90.8C1149.31 90.8 1158.71 94.8667 1165.51 103C1172.31 111 1175.71 122 1175.71 136V169.2C1175.71 184.267 1175.84 195.2 1176.11 202H1129.51ZM1299.84 152H1234.64C1235.71 157.867 1238.31 162.667 1242.44 166.4C1246.71 170 1252.71 171.8 1260.44 171.8C1266.04 171.8 1271.31 170.733 1276.24 168.6C1281.17 166.333 1285.11 163.2 1288.04 159.2C1296.97 163.6 1308.84 168.333 1323.64 173.4C1319.51 182.733 1311.97 190.2 1301.04 195.8C1290.24 201.267 1276.11 204 1258.64 204C1235.97 204 1219.17 198.8 1208.24 188.4C1197.44 177.867 1192.04 164.067 1192.04 147C1192.04 130.333 1197.44 116.8 1208.24 106.4C1219.04 96 1235.84 90.8 1258.64 90.8C1272.24 90.8 1284.04 93.0667 1294.04 97.6C1304.04 102.133 1311.71 108.467 1317.04 116.6C1322.37 124.6 1325.04 133.8 1325.04 144.2C1325.04 147.667 1324.91 150.267 1324.64 152H1299.84ZM1261.44 121C1254.77 121 1249.31 122.267 1245.04 124.8C1240.77 127.333 1237.77 130.8 1236.04 135.2H1283.24C1281.64 130.933 1279.04 127.533 1275.44 125C1271.84 122.333 1267.17 121 1261.44 121Z" fill="#FF5050"/>
<rect width="266" height="266" rx="36" fill="#FF5050"/>
<rect x="110" y="56" width="46" height="46" rx="10" fill="white"/>
<rect x="110" y="110" width="46" height="46" rx="10" fill="white"/>
<path d="M57 83.1818C57 80.8723 58.8723 79 61.1818 79H93C98.5228 79 103 83.4772 103 89V120.818C103 123.128 101.128 125 98.8182 125V125C75.7226 125 57 106.277 57 83.1818V83.1818Z" fill="white"/>
<path d="M163 83.1818C163 80.8723 164.872 79 167.182 79V79C190.277 79 209 97.7226 209 120.818V120.818C209 123.128 207.128 125 204.818 125H173C167.477 125 163 120.523 163 115V83.1818Z" fill="white"/>
<path d="M110 164H156V210V210C130.595 210 110 189.405 110 164V164Z" fill="white"/>
</svg>
